<svg id="Group_265" data-name="Group 265" xmlns="http://www.w3.org/2000/svg" width="481.491" height="151.292" viewBox="0 0 481.491 151.292">
  <rect id="Rectangle_3819" data-name="Rectangle 3819" width="10.62" height="3.175" transform="translate(240.852 22.854)"/>
  <rect id="Rectangle_3820" data-name="Rectangle 3820" width="10.62" height="3.175" transform="translate(244.258 24.442)"/>
  <rect id="Rectangle_3821" data-name="Rectangle 3821" width="16.71" height="3.175" transform="translate(241.942 25.665)"/>
  <rect id="Rectangle_3822" data-name="Rectangle 3822" width="16.71" height="3.175" transform="translate(245.026 26.894)"/>
  <rect id="Rectangle_3823" data-name="Rectangle 3823" width="8.397" height="3.175" transform="translate(258.651 28.84)"/>
  <rect id="Rectangle_3824" data-name="Rectangle 3824" width="16.71" height="3.175" transform="translate(246.844 28.84)"/>
  <rect id="Rectangle_3825" data-name="Rectangle 3825" width="16.71" height="3.175" transform="translate(255.199 30.427)"/>
  <rect id="Rectangle_3826" data-name="Rectangle 3826" width="16.71" height="3.175" transform="translate(258.694 31.656)"/>
  <rect id="Rectangle_3827" data-name="Rectangle 3827" width="16.71" height="3.175" transform="translate(265.057 35.19)"/>
  <rect id="Rectangle_3828" data-name="Rectangle 3828" width="16.71" height="3.175" transform="translate(273.412 38.679)"/>
  <rect id="Rectangle_3829" data-name="Rectangle 3829" width="16.71" height="3.175" transform="translate(261.736 33.602)"/>
  <rect id="Rectangle_3830" data-name="Rectangle 3830" width="16.71" height="3.175" transform="translate(268.564 36.777)"/>
  <rect id="Rectangle_3831" data-name="Rectangle 3831" width="16.71" height="3.175" transform="translate(268.792 36.777)"/>
  <rect id="Rectangle_3832" data-name="Rectangle 3832" width="16.71" height="3.175" transform="translate(276.92 39.952)"/>
  <rect id="Rectangle_3833" data-name="Rectangle 3833" width="16.71" height="3.175" transform="translate(280.494 41.54)"/>
  <rect id="Rectangle_3834" data-name="Rectangle 3834" width="16.71" height="3.175" transform="translate(282.911 43.127)"/>
  <rect id="Rectangle_3835" data-name="Rectangle 3835" width="16.71" height="3.175" transform="translate(287.282 44.715)"/>
  <rect id="Rectangle_3836" data-name="Rectangle 3836" width="16.71" height="3.175" transform="translate(289.332 46.302)"/>
  <rect id="Rectangle_3837" data-name="Rectangle 3837" width="16.71" height="3.175" transform="translate(293.69 47.594)"/>
  <rect id="Rectangle_3838" data-name="Rectangle 3838" width="16.71" height="3.175" transform="translate(297.687 49.08)"/>
  <rect id="Rectangle_3839" data-name="Rectangle 3839" width="16.71" height="3.175" transform="translate(299.321 50.671)"/>
  <rect id="Rectangle_3840" data-name="Rectangle 3840" width="16.71" height="3.175" transform="translate(302.045 52.06)"/>
  <rect id="Rectangle_3841" data-name="Rectangle 3841" width="16.71" height="3.175" transform="translate(312.422 53.452)"/>
  <rect id="Rectangle_3842" data-name="Rectangle 3842" width="16.71" height="3.175" transform="translate(313.154 53.452)"/>
  <rect id="Rectangle_3843" data-name="Rectangle 3843" width="16.71" height="3.175" transform="translate(306.737 53.088)"/>
  <rect id="Rectangle_3844" data-name="Rectangle 3844" width="16.71" height="3.175" transform="translate(317.729 56.268)"/>
  <rect id="Rectangle_3845" data-name="Rectangle 3845" width="16.71" height="3.175" transform="translate(317.729 58.481)"/>
  <rect id="Rectangle_3846" data-name="Rectangle 3846" width="16.71" height="3.175" transform="translate(316.031 58.644)"/>
  <rect id="Rectangle_3847" data-name="Rectangle 3847" width="16.71" height="3.175" transform="translate(307.676 55.039)"/>
  <rect id="Rectangle_3848" data-name="Rectangle 3848" width="16.71" height="3.175" transform="translate(314.397 57.415)"/>
  <rect id="Rectangle_3849" data-name="Rectangle 3849" width="9.962" height="3.175" transform="translate(318.755 61.923)"/>
  <rect id="Rectangle_3850" data-name="Rectangle 3850" width="16.71" height="3.175" transform="translate(318.576 60.693)"/>
  <path id="Path_207" data-name="Path 207" d="M-3030.54,260.476v-12.5h-7.541V236.068h-61.912v9.525h-2.779v2.381h-5.556v4.564h-4.762v21.233h86.122v-13.3Z" transform="translate(3169.13 -149.643)"/>
  <path id="Path_208" data-name="Path 208" d="M-2998.722,600.518h-3.745v-3.487h-3.636v-2.654h-65.447v2.654h-4.363v3.487h-3.878v14.463h3.812v6.342h4v3.687h65.447v-3.687h4v-6.342h3.812Z" transform="translate(3138.358 -480.766)" fill="#3a3a3a"/>
  <path id="Path_209" data-name="Path 209" d="M-2825.275,236.068h-4.784v9.525h-3.417v8.465h-3.075v9.2h5.3v-5.608h3.587v-7.985h2.392Z" transform="translate(2913.573 -149.643)" fill="#595858"/>
  <path id="Path_210" data-name="Path 210" d="M-2408.751,236.068h4.784v9.525h3.417v8.465h3.075v9.2h-5.3v-5.608h-3.587v-7.985h-2.392Z" transform="translate(2518.232 -149.643)" fill="#595858"/>
  <g id="Group_261" data-name="Group 261" transform="translate(58.567 86.425)">
    <path id="Path_211" data-name="Path 211" d="M-2998.722,600.518h-3.745v-3.487h-3.636v-2.654h-65.447v2.654h-4.363v3.487h-3.878v14.463h3.812v6.342h4v3.687h65.447v-3.687h4v-6.342h3.812Z" transform="translate(3079.791 -567.191)" fill="#3a3a3a"/>
    <path id="Path_212" data-name="Path 212" d="M-2825.275,236.068h-4.784v9.525h-3.417v8.465h-3.075v9.2h5.3v-5.608h3.587v-7.985h2.392Z" transform="translate(2855.006 -236.068)" fill="#595858"/>
    <path id="Path_213" data-name="Path 213" d="M-2408.751,236.068h4.784v9.525h3.417v8.465h3.075v9.2h-5.3v-5.608h-3.587v-7.985h-2.392Z" transform="translate(2459.665 -236.068)" fill="#595858"/>
  </g>
  <path id="Path_214" data-name="Path 214" d="M830.712,347.721v-7.786H825.63v-5.1h-9.314v-5.858H784.355v6.842h-7.541v2.58h-5.748v9.327h-3.408V350.9h-4.734v8.731h70.644V347.721Z" transform="translate(-412.798 -235.499)"/>
  <g id="Group_262" data-name="Group 262" transform="translate(346.876 93.474)">
    <path id="Path_215" data-name="Path 215" d="M801.17,693.423h-3.745v-3.487H793.79v-2.654H728.343v2.654H723.98v3.487H720.1v14.463h3.811v6.341h4v3.687h65.447v-3.687h4v-6.341h3.811Z" transform="translate(-720.102 -660.097)" fill="#3a3a3a"/>
    <path id="Path_216" data-name="Path 216" d="M974.616,328.973h-4.783V338.5h-3.417v8.465h-3.075v9.2h5.3v-5.608h3.588v-7.985h2.392Z" transform="translate(-944.886 -328.973)" fill="#595858"/>
    <path id="Path_217" data-name="Path 217" d="M1391.141,328.973h4.783V338.5h3.417v8.465h3.075v9.2h-5.3v-5.608h-3.587v-7.985h-2.392Z" transform="translate(-1340.227 -328.973)" fill="#595858"/>
  </g>
  <path id="Path_218" data-name="Path 218" d="M-3343.579-602.818h-4.365v-9.43h-4.271v-4.063h-17.954v-4.271h-8.334v-5.854h-7.937V-630.9h-13.891v-1.389h-11.906v-1.786H-3429.3v-3.572h-14.24v-2.381h-34.972v-2.778h-16.689v2.979h4.783v7.538h-5.93v1.1h-8.6v-3.175h-15.382v3.175h2.006v4.659h5.685v3.779h-46.038v-2.787H-3620.6v-6.747h-36.91v-35.52h66.624v1.588h4.513v3.175h7.69v1.587h6.018v3.175h6.286v3.175h7.691v3.175h5.515v3.175h5.912v3.175h7.691v2.778h4.011v2.979h5.184v2.979h6.187v2.375h15.382v-3.175h-6.187v-2.376h-5.184V-643h-4.011v-2.979h-7.691v-2.778h-5.911v-3.175h-5.515v-3.175h-7.69v-3.175h-6.287v-3.175h-6.017v-3.175h-7.691v-1.588h-4.514V-669.4h-1v-2.811h-5.2v-3.539h-20.241v-.794h-52.785v-2.778h-25.6v3.572h-4.564v3.969h-8.238v1.588h-13.493v2.381h-14.186v3.078h-11.88v3.833h-26.987v3.067h-14.661v2.453h-6.5v2.76h-11.04v2.147h-8.74v3.7h-12.07v3.969h-5.046v10.773h-5.152v19.588h10.2v31.552h9.922v2.778h17.462v5.953h16.272V-593.4h4.763v-4.564h5.556v-2.381h2.778v-9.525h61.912v11.906h7.541v12.5h3.571v13.3h207.963v-8.731h13.891v-15.081h7.541v-6.842h31.96v5.858h9.314v12.89h7.938v11.906h11.906v-5.953h17.661v-2.778h21.63v-3.175h9.525Z" transform="translate(3825.07 696.292)" fill="#bfbfbf"/>
  <path id="Path_219" data-name="Path 219" d="M-2944.278-485.365v2.172h-3.066v2.76h-6.781v1.61h-5.272v2.837h-19.84v3.833h-10.58v9.2h80.5v-22.411Z" transform="translate(3055.212 517.053)" fill="#3a3a3a"/>
  <path id="Path_220" data-name="Path 220" d="M-1504.065-486.352v-4.659h-2.005v-3.279h-3.847v-2.376h-6.187v-3.175h-5.184v-2.784h-4.239v-2.716h-7.463v-3.237h-5.9v22.225h-.009v-25.4h-5.515v-3.175h-7.691V-518.1h-6.286v-3.175h-6.017v-1.587h-7.691v-3.175h-4.513v-1.588h-66.624v35.52h36.711v6.747h54.42v-.243h7.691v3.03h46.037v-3.779Z" transform="translate(1810.802 556.108)"/>
  <rect id="Rectangle_3851" data-name="Rectangle 3851" width="5.091" height="2.959" transform="translate(48.767 22.347)" fill="#595858"/>
  <g id="Group_263" data-name="Group 263" transform="translate(24.807 0)">
    <path id="Path_221" data-name="Path 221" d="M-3444.428-878.9h-23.461v-1.92h-12.747v-3.063h-5.65v-4.831h-9.6v-2.415h-7.6v-3.835h-5.88v-4.025h-4.239v-4.025h-6.11v8.049h-2.444v15.524h-2.587v29.421h6.38v-9.366h4.386v-3.45h10.493v-3.214h7.6v-1.417h9.6v-2.716h5.65v-2.466h12.747v-2.9h23.461Z" transform="translate(3524.742 903.009)" fill="#3a3a3a"/>
    <rect id="Rectangle_3852" data-name="Rectangle 3852" width="5.378" height="4.026" transform="translate(11.141 0)" fill="#595858"/>
    <rect id="Rectangle_3853" data-name="Rectangle 3853" width="6.643" height="5.378" transform="translate(15.265 2.674)" fill="#595858"/>
    <rect id="Rectangle_3854" data-name="Rectangle 3854" width="8.853" height="5.157" transform="translate(21.26 6.922)" fill="#595858"/>
    <rect id="Rectangle_3855" data-name="Rectangle 3855" width="7.387" height="4.12" transform="translate(28.858 10.211)" fill="#595858"/>
    <rect id="Rectangle_3856" data-name="Rectangle 3856" width="5.198" height="2.06" transform="translate(34.261 12.271)" fill="#595858"/>
    <rect id="Rectangle_3857" data-name="Rectangle 3857" width="4.426" height="5.146" transform="translate(38.456 13.985)" fill="#595858"/>
    <rect id="Rectangle_3858" data-name="Rectangle 3858" width="8.853" height="5.146" transform="translate(44.106 17.248)" fill="#595858"/>
    <rect id="Rectangle_3859" data-name="Rectangle 3859" width="8.853" height="2.28" transform="translate(52.426 20.113)" fill="#595858"/>
    <rect id="Rectangle_3860" data-name="Rectangle 3860" width="8.853" height="2.28" transform="translate(56.852 22.194)" fill="#595858"/>
  </g>
  <g id="Group_264" data-name="Group 264" transform="translate(0 3.301)">
    <path id="Path_222" data-name="Path 222" d="M-3759.323-831.759h-26.987v-2.208h-14.661v-3.523h-6.5v-5.556h-11.04v-2.778h-8.74v-4.412h-6.763v-4.629h-4.876V-859.5h-7.028v9.259h-2.811v17.856h-2.976v33.841h7.339v-10.773h5.046v-3.969h12.069v-3.7h8.74v-1.63h11.04v-3.123h6.5v-2.837h14.661V-827.9h26.987Z" transform="translate(3851.704 859.495)" fill="#3a3a3a"/>
    <rect id="Rectangle_3861" data-name="Rectangle 3861" width="6.186" height="4.631" transform="translate(12.815)" fill="#595858"/>
    <rect id="Rectangle_3862" data-name="Rectangle 3862" width="7.641" height="6.186" transform="translate(17.559 3.076)" fill="#595858"/>
    <rect id="Rectangle_3863" data-name="Rectangle 3863" width="10.183" height="5.932" transform="translate(24.454 7.962)" fill="#595858"/>
    <rect id="Rectangle_3864" data-name="Rectangle 3864" width="8.497" height="4.739" transform="translate(33.194 11.745)" fill="#595858"/>
    <rect id="Rectangle_3865" data-name="Rectangle 3865" width="5.978" height="2.37" transform="translate(39.408 14.114)" fill="#595858"/>
    <rect id="Rectangle_3866" data-name="Rectangle 3866" width="5.091" height="5.919" transform="translate(44.234 16.086)" fill="#595858"/>
    <rect id="Rectangle_3867" data-name="Rectangle 3867" width="10.183" height="5.919" transform="translate(50.733 19.839)" fill="#595858"/>
    <rect id="Rectangle_3868" data-name="Rectangle 3868" width="10.183" height="2.623" transform="translate(60.302 23.135)" fill="#595858"/>
    <rect id="Rectangle_3869" data-name="Rectangle 3869" width="10.183" height="2.623" transform="translate(65.394 25.528)" fill="#595858"/>
  </g>
  <rect id="Rectangle_3870" data-name="Rectangle 3870" width="22.477" height="4.222" transform="translate(81.66 27.466)" fill="#3a3a3a"/>
  <rect id="Rectangle_3871" data-name="Rectangle 3871" width="7.222" height="3.041" transform="translate(77.023 29.577)" fill="#3a3a3a"/>
  <rect id="Rectangle_3872" data-name="Rectangle 3872" width="3.758" height="3.948" transform="translate(75.576 29.06)" fill="#3a3a3a"/>
  <rect id="Rectangle_3873" data-name="Rectangle 3873" width="26.986" height="1.13" transform="translate(65.394 34.263)" fill="#3a3a3a"/>
  <rect id="Rectangle_3874" data-name="Rectangle 3874" width="14.661" height="0.895" transform="translate(50.732 37.564)" fill="#3a3a3a"/>
</svg>
