<svg xmlns="http://www.w3.org/2000/svg" width="1822.708" height="887.511" viewBox="0 0 1822.708 887.511">
  <g id="Group_374" data-name="Group 374" transform="translate(-66.314 -69.629)">
    <path id="Path_1" data-name="Path 1" d="M1874.344,248.523,1701.657,67.829c-17.675-18.485-38.5-28.267-60.225-28.267H356.114c-22.819,0-45.323,11.253-63.364,31.681L135.124,249.7c-25.153,28.484-40.172,73.276-40.172,119.819V597.13c0,46.544,15.019,91.335,40.174,119.819L292.75,895.392c18.048,20.428,40.55,31.681,63.364,31.681H1641.432c21.721,0,42.542-9.776,60.229-28.267l172.68-180.685c27.126-28.373,43.318-74.439,43.318-123.224V371.747C1917.66,322.959,1901.467,276.893,1874.344,248.523ZM441.223,813.721c-.039-.072-.066-.154-.1-.224.515.078,1.039.154,1.561.224Zm1175.244-35.559v14.929c-11.863,7.3-68.447,14.709-158.348,20.63H555.507c-96.27-6.344-154.334-14.389-160.2-22.177a3.928,3.928,0,0,1,.5,2.084h-1.351V778.162c-93.577,0-169.7-132.265-169.7-294.846s76.127-294.843,169.7-294.843V171.429h.844a4.007,4.007,0,0,1-.5,2.087c5.388-7.16,54.857-14.531,137.508-20.6H1480.3c78.085,5.731,126.513,12.628,136.169,19.413V188.47c93.58,0,169.706,132.266,169.706,294.846S1710.044,778.162,1616.467,778.162Z" transform="translate(-28.638 30.067)" fill="#dd6b99"/>
    <g id="Group_2" data-name="Group 2" transform="translate(388.971 216.506)">
      <path id="Path_2" data-name="Path 2" d="M280.713,93.762h-1.3c-.278-3.166-2.432-5.571-5-5.58H232.278c-2.776.009-5.024,2.794-5.032,6.229v21.85c.007,3.438,2.256,6.22,5.032,6.229h42.13c2.776-.009,5.022-2.791,5.029-6.229v-.668h1.271c2.358-.009,4.271-2.374,4.276-5.3V99.063C284.978,96.142,283.071,93.771,280.713,93.762Z" transform="translate(-227.246 -88.182)" fill="none" stroke="#50b9af" stroke-miterlimit="10" stroke-width="1.686"/>
      <path id="Path_3" data-name="Path 3" d="M255.7,112.7H232.637c-1.641.088-3.036-1.477-3.127-3.51v-15.6c.09-2.033,1.485-3.6,3.127-3.507h32.772" transform="translate(-223.988 -84.359)" fill="#50b9af"/>
    </g>
    <g id="Group_6" data-name="Group 6" transform="translate(1659.868 435.077)">
      <g id="Group_5" data-name="Group 5" transform="translate(0)">
        <path id="Rectangle_25" data-name="Rectangle 25" d="M762.457,160.534h0c2.271,0,4.112,2.281,4.112,5.093V310.786c0,2.812-1.841,5.093-4.112,5.093h0c-2.271,0-4.112-2.281-4.112-5.093V165.627C758.345,162.815,760.186,160.534,762.457,160.534Z" transform="translate(-733.922 -160.534)" fill="#50b9af"/>
        <g id="Group_3" data-name="Group 3" transform="translate(40.399 2.208)">
          <path id="Rectangle_27" data-name="Rectangle 27" d="M780.477,177.416h0c0,4.737-3.1,8.579-6.924,8.579h-1.732c-3.824,0-6.926-3.843-6.926-8.579h0c0-4.737,3.1-8.579,6.926-8.579h1.732C777.378,168.837,780.477,172.68,780.477,177.416Z" transform="translate(-764.895 -145.962)" fill="#50b9af"/>
          <path id="Rectangle_33" data-name="Rectangle 33" d="M780.477,207.7h0c0,4.74-3.1,8.579-6.924,8.579h-1.732c-3.824,0-6.926-3.84-6.926-8.579h0c0-4.737,3.1-8.576,6.926-8.576h1.732C777.378,199.127,780.477,202.967,780.477,207.7Z" transform="translate(-764.895 -84.748)" fill="#50b9af"/>
          <path id="Rectangle_30" data-name="Rectangle 30" d="M780.477,169.844h0c0,4.737-3.1,8.576-6.924,8.576h-1.732c-3.824,0-6.926-3.84-6.926-8.576h0c0-4.737,3.1-8.579,6.926-8.579h1.732C777.378,161.265,780.477,165.108,780.477,169.844Z" transform="translate(-764.895 -161.265)" fill="#50b9af"/>
          <path id="Rectangle_34" data-name="Rectangle 34" d="M780.477,200.131h0c0,4.74-3.1,8.579-6.924,8.579h-1.732c-3.824,0-6.926-3.84-6.926-8.579h0c0-4.737,3.1-8.576,6.926-8.576h1.732C777.378,191.555,780.477,195.395,780.477,200.131Z" transform="translate(-764.895 -100.051)" fill="#50b9af"/>
          <path id="Rectangle_28" data-name="Rectangle 28" d="M780.477,184.986h0c0,4.74-3.1,8.579-6.924,8.579h-1.732c-3.824,0-6.926-3.84-6.926-8.579h0c0-4.737,3.1-8.576,6.926-8.576h1.732C777.378,176.41,780.477,180.25,780.477,184.986Z" transform="translate(-764.895 -130.658)" fill="#50b9af"/>
          <path id="Rectangle_32" data-name="Rectangle 32" d="M780.477,215.278h0c0,4.737-3.1,8.576-6.924,8.576h-1.732c-3.824,0-6.926-3.84-6.926-8.576h0c0-4.74,3.1-8.579,6.926-8.579h1.732C777.378,206.7,780.477,210.539,780.477,215.278Z" transform="translate(-764.895 -69.446)" fill="#50b9af"/>
          <path id="Rectangle_29" data-name="Rectangle 29" d="M780.477,192.561h0c0,4.737-3.1,8.579-6.924,8.579h-1.732c-3.824,0-6.926-3.843-6.926-8.579h0c0-4.737,3.1-8.579,6.926-8.579h1.732C777.378,183.982,780.477,187.825,780.477,192.561Z" transform="translate(-764.895 -115.356)" fill="#50b9af"/>
        </g>
        <g id="Group_4" data-name="Group 4" transform="translate(0 0.779)">
          <path id="Rectangle_27-2" data-name="Rectangle 27-2" d="M763.913,176.943h0c0,4.737-3.1,8.576-6.927,8.576h-1.732c-3.824,0-6.924-3.84-6.924-8.576h0c0-4.74,3.1-8.579,6.924-8.579h1.732C760.811,168.364,763.913,172.2,763.913,176.943Z" transform="translate(-748.331 -145.49)" fill="#50b9af"/>
          <path id="Rectangle_33-2" data-name="Rectangle 33-2" d="M763.913,207.23h0c0,4.737-3.1,8.579-6.927,8.579h-1.732c-3.824,0-6.924-3.843-6.924-8.579h0c0-4.737,3.1-8.576,6.924-8.576h1.732C760.811,198.654,763.913,202.494,763.913,207.23Z" transform="translate(-748.331 -84.275)" fill="#50b9af"/>
          <path id="Rectangle_30-2" data-name="Rectangle 30-2" d="M763.913,169.368h0c0,4.74-3.1,8.579-6.927,8.579h-1.732c-3.824,0-6.924-3.84-6.924-8.579h0c0-4.737,3.1-8.576,6.924-8.576h1.732C760.811,160.792,763.913,164.632,763.913,169.368Z" transform="translate(-748.331 -160.792)" fill="#50b9af"/>
          <path id="Rectangle_34-2" data-name="Rectangle 34-2" d="M763.913,199.66h0c0,4.737-3.1,8.579-6.927,8.579h-1.732c-3.824,0-6.924-3.843-6.924-8.579h0c0-4.737,3.1-8.579,6.924-8.579h1.732C760.811,191.081,763.913,194.924,763.913,199.66Z" transform="translate(-748.331 -99.58)" fill="#50b9af"/>
          <path id="Rectangle_28-2" data-name="Rectangle 28-2" d="M763.913,184.515h0c0,4.737-3.1,8.579-6.927,8.579h-1.732c-3.824,0-6.924-3.843-6.924-8.579h0c0-4.737,3.1-8.579,6.924-8.579h1.732C760.811,175.936,763.913,179.779,763.913,184.515Z" transform="translate(-748.331 -130.187)" fill="#50b9af"/>
          <path id="Rectangle_32-2" data-name="Rectangle 32-2" d="M763.913,214.8h0c0,4.74-3.1,8.579-6.927,8.579h-1.732c-3.824,0-6.924-3.84-6.924-8.579h0c0-4.737,3.1-8.576,6.924-8.576h1.732C760.811,206.226,763.913,210.066,763.913,214.8Z" transform="translate(-748.331 -68.973)" fill="#50b9af"/>
          <path id="Rectangle_29-2" data-name="Rectangle 29-2" d="M763.913,192.088h0c0,4.737-3.1,8.576-6.927,8.576h-1.732c-3.824,0-6.924-3.84-6.924-8.576h0c0-4.74,3.1-8.579,6.924-8.579h1.732C760.811,183.509,763.913,187.349,763.913,192.088Z" transform="translate(-748.331 -114.882)" fill="#50b9af"/>
        </g>
      </g>
    </g>
  </g>
</svg>
