<svg xmlns="http://www.w3.org/2000/svg" width="176" height="183.172" viewBox="0 0 176 183.172">
  <g id="Group_295" data-name="Group 295" transform="translate(-3882.298 -4549.3)">
    <path id="Path_234" data-name="Path 234" d="M4015.3,4603.675v-25.945h-16.158V4549.3h-72.309v9.817h-10.807v13.55h-11.278v10.024h-13.018v11.248H3882.3v93.893h9.433v11.249h13.018v10.025h9.633v13.549h10.807v9.818h90.218v-6.761h-13.956v-23.544h4.4v-12.491h17.4v-10.57H4034.1v-11.05h24.2v-64.38Z" fill="#aaa"/>
    <path id="Path_235" data-name="Path 235" d="M4145.163,4784.92v21.363h-2.234v2.56h-3.083v2.281h-2.281v3.082h-2.559v2.234h-21.363v-2.234h-2.559v-3.082H4108.8v-2.281h-3.082v-2.56h-2.234V4784.92h2.234v-2.559h3.082v-2.281h2.67V4777h2.56v-2.234H4135.4V4777h2.559v3.083h1.891v2.281h3.083v2.559Z" transform="translate(-194.423 -193.269)" fill="#878787"/>
    <path id="Path_236" data-name="Path 236" d="M4214.735,4875.526v7.107h-.743v.852h-1.026v.759h-.759v1.025h-.851v.743h-7.107v-.743h-.852v-1.025h-.759v-.759h-1.026v-.852h-.743v-7.107h.743v-.851h1.026v-.759h.888v-1.026h.852v-.743h7.107v.743h.851v1.026h.629v.759h1.026v.851Z" transform="translate(-278.986 -276.747)"/>
    <rect id="Rectangle_3890" data-name="Rectangle 3890" width="176" height="5.082" transform="translate(3882.298 4653.292)" fill="#878787"/>
    <rect id="Rectangle_3891" data-name="Rectangle 3891" width="21.823" height="11.212" transform="translate(4008.705 4565.682)" fill="#aaa"/>
    <rect id="Rectangle_3892" data-name="Rectangle 3892" width="27.39" height="19.151" transform="translate(3987.573 4556.106)" fill="#aaa"/>
    <rect id="Rectangle_3893" data-name="Rectangle 3893" width="23.491" height="16.778" transform="translate(4034.806 4602.333)" fill="#aaa"/>
    <rect id="Rectangle_3894" data-name="Rectangle 3894" width="11.442" height="11.442" transform="translate(4027.488 4583.32)" fill="#aaa"/>
    <rect id="Rectangle_3895" data-name="Rectangle 3895" width="17.563" height="4.496" transform="translate(4005.579 4590.904)" fill="#aaa"/>
    <rect id="Rectangle_3896" data-name="Rectangle 3896" width="22.233" height="22.233" transform="translate(4008.304 4595.4)" fill="#aaa"/>
    <rect id="Rectangle_3897" data-name="Rectangle 3897" width="37.135" height="17.031" transform="translate(3993.802 4691.492)" fill="#aaa"/>
    <rect id="Rectangle_3898" data-name="Rectangle 3898" width="58.543" height="6.387" transform="translate(3974.667 4719.699)" fill="#aaa"/>
    <rect id="Rectangle_3899" data-name="Rectangle 3899" width="22.353" height="12.773" transform="translate(3998.635 4706.926)" fill="#aaa"/>
  </g>
</svg>
