<svg xmlns="http://www.w3.org/2000/svg" width="32" height="31.896" viewBox="0 0 32 31.896">
  <path id="Path_16" data-name="Path 16" d="M406.536,488.167a13.467,13.467,0,0,1-8.416,2.369c-8.687-.42-14.76-9.889-11.384-17.9a13.342,13.342,0,0,1,13.665-8.215c4.974.421,9.842,4.528,11.272,9.746a11.472,11.472,0,0,1-1.1,9.259c-.823,1.366-.644,2.133.493,3.155,1.995,1.794,3.8,3.8,5.742,5.653.989.945,1.307,2.327.586,3.14a2.222,2.222,0,0,1-3.475.1c-2.128-2.071-4.208-4.191-6.31-6.288C407.28,488.864,406.936,488.549,406.536,488.167Zm1.152-10.668a8.712,8.712,0,1,0-8.735,8.715A8.762,8.762,0,0,0,407.688,477.5Z" transform="translate(-385.788 -464.372)"/>
</svg>
