<svg xmlns="http://www.w3.org/2000/svg" viewBox="0 0 486.91 159.82"><title>Asset 4</title><g id="Layer_2" data-name="Layer 2"><g id="Layer_1-2" data-name="Layer 1"><path d="M486.91,159.82V0H0V159.82Z" style="fill:#fff"/><path d="M486.91,159.82H0V0H486.91ZM290.7,80.36l-1.15-.07c-.28-.87-.61-1.73-.85-2.61-3.83-14.15-7.79-28.26-11.38-42.46-.94-3.71-2.55-5-6.33-4.82-5.8.29-11.62.08-17.43.08H235.78V130.83h23v-67a16.84,16.84,0,0,1,2.41,5.54q6.29,24.06,12.52,48.14c3.72,14.32,3.73,14.19,18.81,14.13,3.82,0,5.35-1.27,6.25-4.94,3.92-16.11,8.13-32.14,12.26-48.2,1.13-4.39,2.35-8.76,3.52-13.14l1.24.2v65.61h28.32V30.48c-12.14,0-23.73.18-35.31-.1-4.1-.09-5.69,1.26-6.64,5.22C298.56,50.57,294.56,65.45,290.7,80.36ZM88,92.56c.11,2.34.29,4.42.29,6.5,0,8.88.21,17.76-.06,26.63-.13,4.21,1,5.93,5.51,5.72,6.57-.32,13.18-.31,19.75,0,4.47.2,6-1.12,6-5.82-.21-29.91-.1-59.83-.12-89.74,0-1.65-.28-3.31-.42-4.91H88.44V67.09H65.54V30.85H34.76v99.93H65.71V92.56ZM406.77,29.19c-12.21,0-23.4,3.08-32.34,11.74-15.52,15-20.25,42.72-11.24,64,12.66,29.86,54.29,37.95,77.13,14.8,12.6-12.78,15.26-28.72,13.95-45.94C452.27,47.29,433.25,29.24,406.77,29.19ZM192.88,30.84c0,5.4,0,10.37,0,15.34,0,16.6.16,33.2-.2,49.78-.17,8.25-3.72,11.63-11,12.12-11.16.76-14.79-2.52-14.83-13.78-.09-19.29,0-38.59-.15-57.88,0-1.88-1.42-5.35-2.29-5.38-9.6-.39-19.22-.25-28.78-.25,0,25.82-.47,50.87.2,75.88.31,11.65,8.38,18.72,18.92,22.57a64.75,64.75,0,0,0,37.15,2.21c14.7-3.36,24.34-13.44,24.83-27.55.83-23.51.68-47.05.91-70.58a11.64,11.64,0,0,0-.57-2.48Z" style="fill:red"/><path d="M290.7,80.36c3.86-14.91,7.86-29.79,11.46-44.76.95-4,2.54-5.31,6.64-5.22,11.58.28,23.17.1,35.31.1V131.17H315.79V65.56l-1.24-.2c-1.17,4.38-2.39,8.75-3.52,13.14-4.13,16.06-8.34,32.09-12.26,48.2-.9,3.67-2.43,4.92-6.25,4.94-15.08.06-15.09.19-18.81-14.13q-6.27-24.06-12.52-48.14a16.84,16.84,0,0,0-2.41-5.54v67h-23V30.48h17.78c5.81,0,11.63.21,17.43-.08,3.78-.19,5.39,1.11,6.33,4.82,3.59,14.2,7.55,28.31,11.38,42.46.24.88.57,1.74.85,2.61Z" style="fill:#fff"/><path d="M88,92.56H65.71v38.22H34.76V30.85H65.54V67.09h22.9V30.94h30.42c.14,1.6.41,3.26.42,4.91,0,29.91-.09,59.83.12,89.74,0,4.7-1.48,6-6,5.82-6.57-.31-13.18-.32-19.75,0-4.46.21-5.64-1.51-5.51-5.72.27-8.87.1-17.75.06-26.63C88.25,97,88.07,94.9,88,92.56Z" style="fill:#fff"/><path d="M406.77,29.19c26.48,0,45.5,18.1,47.5,44.57,1.31,17.22-1.35,33.16-13.95,45.94-22.84,23.15-64.47,15.06-77.13-14.8-9-21.25-4.28-48.95,11.24-64C383.37,32.27,394.56,29.17,406.77,29.19Zm15.5,52.47c-1.5-7.07-2.61-14.09-4.55-20.87-1.43-5-5.11-8.12-10.75-8.09s-9.57,2.95-11.39,8.2a60.35,60.35,0,0,0-.33,39.69c1.69,5.1,5.1,8.53,11,8.74s9.93-2.77,11.58-7.86C419.88,95.15,420.8,88.46,422.27,81.66Z" style="fill:#fff"/><path d="M192.88,30.84h24.23a11.64,11.64,0,0,1,.57,2.48c-.23,23.53-.08,47.07-.91,70.58-.49,14.11-10.13,24.19-24.83,27.55a64.75,64.75,0,0,1-37.15-2.21c-10.54-3.85-18.61-10.92-18.92-22.57-.67-25-.2-50.06-.2-75.88,9.56,0,19.18-.14,28.78.25.87,0,2.27,3.5,2.29,5.38.18,19.29.06,38.59.15,57.88,0,11.26,3.67,14.54,14.83,13.78,7.24-.49,10.79-3.87,11-12.12.36-16.58.17-33.18.2-49.78C192.89,41.21,192.88,36.24,192.88,30.84Z" style="fill:#fff"/><path d="M419.42,67.61a64.07,64.07,0,0,1-.22,29c-.4,1.65-.85,3.27-1.37,4.87-1.65,5.09-5.71,8.08-11.58,7.86s-9.31-3.64-11-8.74a60.35,60.35,0,0,1,.33-39.69c1.82-5.25,5.66-8.15,11.39-8.2s9.32,3.12,10.75,8.09C418.36,63,418.92,65.32,419.42,67.61Z" style="fill:red"/></g></g></svg>