<svg xmlns="http://www.w3.org/2000/svg" viewBox="0 0 605.09 327.48"><title>Asset 1</title><g id="Layer_2" data-name="Layer 2"><g id="Layer_5" data-name="Layer 5"><rect width="605.09" height="327.48" style="fill:#030303"/><path d="M183.91,30.22a45.13,45.13,0,0,0-30.74,78.19L99,267.41l30.35,10.34,53.57-157.27c.32,0,.65,0,1,0a45.15,45.15,0,0,0,0-90.29Z" style="fill:#50b9af"/><rect id="Rectangle_3912" data-name="Rectangle 3912" x="49.28" y="242.05" width="150.39" height="53.59" rx="26.79" style="fill:#dd6b99"/><path id="Rectangle_3913" data-name="Rectangle 3913" d="M263.65,225.9h83a16.15,16.15,0,0,1,16.15,16.15h0a16.15,16.15,0,0,1-16.15,16.15h-83a16.15,16.15,0,0,1-16.15-16.15h0A16.15,16.15,0,0,1,263.65,225.9Z" style="fill:#50b9af"/><path id="Rectangle_3913-2" data-name="Rectangle 3913" d="M448.06,223.45h83a16.15,16.15,0,0,1,16.15,16.15h0a16.15,16.15,0,0,1-16.15,16.15h-83a16.16,16.16,0,0,1-16.15-16.15h0A16.16,16.16,0,0,1,448.06,223.45Z" style="fill:#50b9af"/><rect id="Rectangle_3914" data-name="Rectangle 3914" x="226.21" y="242.29" width="152.67" height="53.1" rx="26.55" style="fill:#dd6b99"/><rect id="Rectangle_3914-2" data-name="Rectangle 3914" x="410.63" y="239.85" width="152.67" height="53.1" rx="26.55" style="fill:#dd6b99"/></g></g></svg>