<svg xmlns="http://www.w3.org/2000/svg" width="1543.469" height="298.054" viewBox="0 0 1543.469 298.054">
  <g id="Group_382" data-name="Group 382" transform="translate(277 -3211)">
    <g id="Group_257" data-name="Group 257" transform="translate(-560.87 2866.25)">
      <path id="Path_187" data-name="Path 187" d="M899.72,445.781v193.21a3.87,3.87,0,0,1-3.925,3.813h0a3.87,3.87,0,0,1-3.925-3.813V445.558a3.743,3.743,0,0,1,1.15-2.691,3.967,3.967,0,0,1,2.585-1.113A4.031,4.031,0,0,1,899.72,445.781Z" transform="translate(0 0)" fill="#50b9af"/>
      <path id="Path_188" data-name="Path 188" d="M970.65,445.78V638.986a3.876,3.876,0,0,1-3.93,3.818h0a3.876,3.876,0,0,1-3.93-3.818V445.559a3.743,3.743,0,0,1,1.15-2.691,3.957,3.957,0,0,1,6.71,2.913Z" fill="#50b9af"/>
      <rect id="Rectangle_3616" data-name="Rectangle 3616" width="7.856" height="70.925" rx="1.737" transform="translate(966.719 459.08) rotate(90)" fill="#50b9af"/>
      <rect id="Rectangle_3617" data-name="Rectangle 3617" width="7.856" height="70.925" rx="1.737" transform="translate(966.719 484.854) rotate(90)" fill="#50b9af"/>
      <rect id="Rectangle_3618" data-name="Rectangle 3618" width="7.856" height="70.925" rx="1.737" transform="translate(966.719 511.141) rotate(90)" fill="#50b9af"/>
      <rect id="Rectangle_3619" data-name="Rectangle 3619" width="7.856" height="70.925" rx="1.737" transform="translate(966.719 537.427) rotate(90)" fill="#50b9af"/>
      <rect id="Rectangle_3620" data-name="Rectangle 3620" width="7.856" height="70.925" rx="1.737" transform="translate(966.719 563.713) rotate(90)" fill="#50b9af"/>
      <rect id="Rectangle_3621" data-name="Rectangle 3621" width="7.856" height="70.925" rx="1.737" transform="translate(966.719 590) rotate(90)" fill="#50b9af"/>
      <path id="Path_189" data-name="Path 189" d="M965.27,623.34v4.38a1.739,1.739,0,0,1-1.73,1.74H896.09a1.741,1.741,0,0,1-1.74-1.74v-4.38a1.748,1.748,0,0,1,1.74-1.74h67.45A1.746,1.746,0,0,1,965.27,623.34Z" transform="translate(0 -5.886)" fill="#50b9af"/>
    </g>
    <g id="Group_256" data-name="Group 256" transform="translate(-361.444 3133.22)">
      <rect id="Rectangle_3381" data-name="Rectangle 3381" width="15.712" height="11.242" transform="translate(92.3 120.105)" fill="#dd6b99"/>
      <rect id="Rectangle_3382" data-name="Rectangle 3382" width="15.712" height="11.242" transform="translate(84.445 131.346)" fill="#dd6b99"/>
      <rect id="Rectangle_3383" data-name="Rectangle 3383" width="15.712" height="11.242" transform="translate(149.552 131.346)" fill="#dd6b99"/>
      <rect id="Rectangle_3384" data-name="Rectangle 3384" width="15.712" height="11.242" transform="translate(141.696 120.105)" fill="#dd6b99"/>
      <rect id="Rectangle_3385" data-name="Rectangle 3385" width="15.712" height="11.242" transform="translate(100.156 108.863)" fill="#dd6b99"/>
      <rect id="Rectangle_3386" data-name="Rectangle 3386" width="15.712" height="11.242" transform="translate(133.84 108.863)" fill="#dd6b99"/>
      <rect id="Rectangle_3387" data-name="Rectangle 3387" width="15.712" height="11.242" transform="translate(108.012 97.621)" fill="#dd6b99"/>
      <rect id="Rectangle_3388" data-name="Rectangle 3388" width="15.712" height="11.242" transform="translate(116.837 86.379)" fill="#dd6b99"/>
      <rect id="Rectangle_3389" data-name="Rectangle 3389" width="15.712" height="11.242" transform="translate(125.984 97.621)" fill="#dd6b99"/>
      <rect id="Rectangle_3390" data-name="Rectangle 3390" width="15.712" height="11.242" transform="translate(165.828 120.105)" fill="#dd6b99"/>
      <rect id="Rectangle_3391" data-name="Rectangle 3391" width="15.712" height="11.242" transform="translate(157.972 131.346)" fill="#dd6b99"/>
      <rect id="Rectangle_3392" data-name="Rectangle 3392" width="15.712" height="11.242" transform="translate(223.08 131.346)" fill="#dd6b99"/>
      <rect id="Rectangle_3393" data-name="Rectangle 3393" width="15.712" height="11.242" transform="translate(215.224 120.105)" fill="#dd6b99"/>
      <rect id="Rectangle_3394" data-name="Rectangle 3394" width="15.712" height="11.242" transform="translate(173.684 108.863)" fill="#dd6b99"/>
      <rect id="Rectangle_3395" data-name="Rectangle 3395" width="15.712" height="11.242" transform="translate(207.368 108.863)" fill="#dd6b99"/>
      <rect id="Rectangle_3396" data-name="Rectangle 3396" width="15.712" height="11.242" transform="translate(181.54 97.621)" fill="#dd6b99"/>
      <rect id="Rectangle_3397" data-name="Rectangle 3397" width="15.712" height="11.242" transform="translate(190.364 86.379)" fill="#dd6b99"/>
      <rect id="Rectangle_3398" data-name="Rectangle 3398" width="15.712" height="11.242" transform="translate(199.512 97.621)" fill="#dd6b99"/>
      <rect id="Rectangle_3399" data-name="Rectangle 3399" width="154.347" height="5.073" transform="translate(84.445 145.884)" fill="#c25484"/>
      <rect id="Rectangle_3400" data-name="Rectangle 3400" width="154.347" height="5.073" transform="translate(84.445 81.306)" fill="#c25484"/>
      <rect id="Rectangle_3401" data-name="Rectangle 3401" width="154.347" height="3.526" transform="translate(84.445 142.588)" fill="#e289b1"/>
      <rect id="Rectangle_3402" data-name="Rectangle 3402" width="154.347" height="3.526" transform="translate(84.445 77.78)" fill="#e289b1"/>
      <rect id="Rectangle_3403" data-name="Rectangle 3403" width="15.712" height="11.242" transform="translate(246.647 128.704)" fill="#dd6b99"/>
      <rect id="Rectangle_3404" data-name="Rectangle 3404" width="15.712" height="11.242" transform="translate(238.791 139.946)" fill="#dd6b99"/>
      <rect id="Rectangle_3405" data-name="Rectangle 3405" width="15.712" height="11.242" transform="translate(303.899 139.946)" fill="#dd6b99"/>
      <rect id="Rectangle_3406" data-name="Rectangle 3406" width="15.712" height="11.242" transform="translate(296.043 128.704)" fill="#dd6b99"/>
      <rect id="Rectangle_3407" data-name="Rectangle 3407" width="15.712" height="11.242" transform="translate(254.503 117.462)" fill="#dd6b99"/>
      <rect id="Rectangle_3408" data-name="Rectangle 3408" width="15.712" height="11.242" transform="translate(288.187 117.462)" fill="#dd6b99"/>
      <rect id="Rectangle_3409" data-name="Rectangle 3409" width="15.712" height="11.242" transform="translate(262.359 106.22)" fill="#dd6b99"/>
      <rect id="Rectangle_3410" data-name="Rectangle 3410" width="15.712" height="11.242" transform="translate(271.184 94.979)" fill="#dd6b99"/>
      <rect id="Rectangle_3411" data-name="Rectangle 3411" width="15.712" height="11.242" transform="translate(280.331 106.22)" fill="#dd6b99"/>
      <rect id="Rectangle_3412" data-name="Rectangle 3412" width="15.712" height="11.242" transform="translate(320.175 128.704)" fill="#dd6b99"/>
      <rect id="Rectangle_3413" data-name="Rectangle 3413" width="15.712" height="11.242" transform="translate(312.319 139.946)" fill="#dd6b99"/>
      <rect id="Rectangle_3414" data-name="Rectangle 3414" width="15.712" height="11.242" transform="translate(377.427 139.946)" fill="#dd6b99"/>
      <rect id="Rectangle_3415" data-name="Rectangle 3415" width="15.712" height="11.242" transform="translate(369.571 128.704)" fill="#dd6b99"/>
      <rect id="Rectangle_3416" data-name="Rectangle 3416" width="15.712" height="11.242" transform="translate(328.031 117.462)" fill="#dd6b99"/>
      <rect id="Rectangle_3417" data-name="Rectangle 3417" width="15.712" height="11.242" transform="translate(361.715 117.462)" fill="#dd6b99"/>
      <rect id="Rectangle_3418" data-name="Rectangle 3418" width="15.712" height="11.242" transform="translate(335.887 106.22)" fill="#dd6b99"/>
      <rect id="Rectangle_3419" data-name="Rectangle 3419" width="15.712" height="11.242" transform="translate(344.711 94.979)" fill="#dd6b99"/>
      <rect id="Rectangle_3420" data-name="Rectangle 3420" width="15.712" height="11.242" transform="translate(353.859 106.22)" fill="#dd6b99"/>
      <rect id="Rectangle_3421" data-name="Rectangle 3421" width="154.347" height="5.073" transform="translate(238.791 154.483)" fill="#c25484"/>
      <rect id="Rectangle_3422" data-name="Rectangle 3422" width="154.347" height="5.073" transform="translate(238.791 89.905)" fill="#c25484"/>
      <rect id="Rectangle_3423" data-name="Rectangle 3423" width="154.347" height="3.526" transform="translate(238.791 151.188)" fill="#e289b1"/>
      <rect id="Rectangle_3424" data-name="Rectangle 3424" width="154.347" height="3.526" transform="translate(238.791 86.379)" fill="#e289b1"/>
      <rect id="Rectangle_3425" data-name="Rectangle 3425" width="15.712" height="11.242" transform="translate(400.994 137.083)" fill="#dd6b99"/>
      <rect id="Rectangle_3426" data-name="Rectangle 3426" width="15.712" height="11.242" transform="translate(393.138 148.324)" fill="#dd6b99"/>
      <rect id="Rectangle_3427" data-name="Rectangle 3427" width="15.712" height="11.242" transform="translate(458.246 148.324)" fill="#dd6b99"/>
      <rect id="Rectangle_3428" data-name="Rectangle 3428" width="15.712" height="11.242" transform="translate(450.39 137.083)" fill="#dd6b99"/>
      <rect id="Rectangle_3429" data-name="Rectangle 3429" width="15.712" height="11.242" transform="translate(408.85 125.841)" fill="#dd6b99"/>
      <rect id="Rectangle_3430" data-name="Rectangle 3430" width="15.712" height="11.242" transform="translate(442.534 125.841)" fill="#dd6b99"/>
      <rect id="Rectangle_3431" data-name="Rectangle 3431" width="15.712" height="11.242" transform="translate(416.706 114.599)" fill="#dd6b99"/>
      <rect id="Rectangle_3432" data-name="Rectangle 3432" width="15.712" height="11.242" transform="translate(425.531 103.357)" fill="#dd6b99"/>
      <rect id="Rectangle_3433" data-name="Rectangle 3433" width="15.712" height="11.242" transform="translate(434.678 114.599)" fill="#dd6b99"/>
      <rect id="Rectangle_3434" data-name="Rectangle 3434" width="15.712" height="11.242" transform="translate(474.522 137.083)" fill="#dd6b99"/>
      <rect id="Rectangle_3435" data-name="Rectangle 3435" width="15.712" height="11.242" transform="translate(466.666 148.324)" fill="#dd6b99"/>
      <rect id="Rectangle_3436" data-name="Rectangle 3436" width="15.712" height="11.242" transform="translate(531.773 148.324)" fill="#dd6b99"/>
      <rect id="Rectangle_3437" data-name="Rectangle 3437" width="15.712" height="11.242" transform="translate(523.917 137.083)" fill="#dd6b99"/>
      <rect id="Rectangle_3438" data-name="Rectangle 3438" width="15.712" height="11.242" transform="translate(482.378 125.841)" fill="#dd6b99"/>
      <rect id="Rectangle_3439" data-name="Rectangle 3439" width="15.712" height="11.242" transform="translate(516.062 125.841)" fill="#dd6b99"/>
      <rect id="Rectangle_3440" data-name="Rectangle 3440" width="15.712" height="11.242" transform="translate(490.234 114.599)" fill="#dd6b99"/>
      <rect id="Rectangle_3441" data-name="Rectangle 3441" width="15.712" height="11.242" transform="translate(499.058 103.357)" fill="#dd6b99"/>
      <rect id="Rectangle_3442" data-name="Rectangle 3442" width="15.712" height="11.242" transform="translate(508.206 114.599)" fill="#dd6b99"/>
      <rect id="Rectangle_3443" data-name="Rectangle 3443" width="154.347" height="5.073" transform="translate(393.138 162.862)" fill="#c25484"/>
      <rect id="Rectangle_3444" data-name="Rectangle 3444" width="154.347" height="5.073" transform="translate(393.138 98.284)" fill="#c25484"/>
      <rect id="Rectangle_3445" data-name="Rectangle 3445" width="154.347" height="3.526" transform="translate(393.138 159.566)" fill="#e289b1"/>
      <rect id="Rectangle_3446" data-name="Rectangle 3446" width="154.347" height="3.526" transform="translate(393.138 94.758)" fill="#e289b1"/>
      <rect id="Rectangle_3447" data-name="Rectangle 3447" width="15.712" height="11.242" transform="translate(555.341 146.008)" fill="#dd6b99"/>
      <rect id="Rectangle_3448" data-name="Rectangle 3448" width="15.712" height="11.242" transform="translate(547.485 157.25)" fill="#dd6b99"/>
      <rect id="Rectangle_3449" data-name="Rectangle 3449" width="15.712" height="11.242" transform="translate(612.593 157.25)" fill="#dd6b99"/>
      <rect id="Rectangle_3450" data-name="Rectangle 3450" width="15.712" height="11.242" transform="translate(604.737 146.008)" fill="#dd6b99"/>
      <rect id="Rectangle_3451" data-name="Rectangle 3451" width="15.712" height="11.242" transform="translate(563.197 134.767)" fill="#dd6b99"/>
      <rect id="Rectangle_3452" data-name="Rectangle 3452" width="15.712" height="11.242" transform="translate(596.881 134.767)" fill="#dd6b99"/>
      <rect id="Rectangle_3453" data-name="Rectangle 3453" width="15.712" height="11.242" transform="translate(571.053 123.525)" fill="#dd6b99"/>
      <rect id="Rectangle_3454" data-name="Rectangle 3454" width="15.712" height="11.242" transform="translate(579.878 112.283)" fill="#dd6b99"/>
      <rect id="Rectangle_3455" data-name="Rectangle 3455" width="15.712" height="11.242" transform="translate(589.025 123.525)" fill="#dd6b99"/>
      <rect id="Rectangle_3456" data-name="Rectangle 3456" width="15.712" height="11.242" transform="translate(628.869 146.008)" fill="#dd6b99"/>
      <rect id="Rectangle_3457" data-name="Rectangle 3457" width="15.712" height="11.242" transform="translate(621.013 157.25)" fill="#dd6b99"/>
      <rect id="Rectangle_3458" data-name="Rectangle 3458" width="15.712" height="11.242" transform="translate(686.12 157.25)" fill="#dd6b99"/>
      <rect id="Rectangle_3459" data-name="Rectangle 3459" width="15.712" height="11.242" transform="translate(678.264 146.008)" fill="#dd6b99"/>
      <rect id="Rectangle_3460" data-name="Rectangle 3460" width="15.712" height="11.242" transform="translate(636.725 134.767)" fill="#dd6b99"/>
      <rect id="Rectangle_3461" data-name="Rectangle 3461" width="15.712" height="11.242" transform="translate(670.409 134.767)" fill="#dd6b99"/>
      <rect id="Rectangle_3462" data-name="Rectangle 3462" width="15.712" height="11.242" transform="translate(644.581 123.525)" fill="#dd6b99"/>
      <rect id="Rectangle_3463" data-name="Rectangle 3463" width="15.712" height="11.242" transform="translate(653.405 112.283)" fill="#dd6b99"/>
      <rect id="Rectangle_3464" data-name="Rectangle 3464" width="15.712" height="11.242" transform="translate(662.553 123.525)" fill="#dd6b99"/>
      <rect id="Rectangle_3465" data-name="Rectangle 3465" width="154.347" height="5.073" transform="translate(547.485 171.787)" fill="#c25484"/>
      <rect id="Rectangle_3466" data-name="Rectangle 3466" width="154.347" height="5.073" transform="translate(547.485 107.21)" fill="#c25484"/>
      <rect id="Rectangle_3467" data-name="Rectangle 3467" width="154.347" height="3.526" transform="translate(547.485 168.492)" fill="#e289b1"/>
      <rect id="Rectangle_3468" data-name="Rectangle 3468" width="154.347" height="3.526" transform="translate(547.485 103.684)" fill="#e289b1"/>
      <rect id="Rectangle_3469" data-name="Rectangle 3469" width="15.712" height="11.242" transform="translate(709.688 154.608)" fill="#dd6b99"/>
      <rect id="Rectangle_3470" data-name="Rectangle 3470" width="15.712" height="11.242" transform="translate(701.832 165.85)" fill="#dd6b99"/>
      <rect id="Rectangle_3471" data-name="Rectangle 3471" width="15.712" height="11.242" transform="translate(766.94 165.85)" fill="#dd6b99"/>
      <rect id="Rectangle_3472" data-name="Rectangle 3472" width="15.712" height="11.242" transform="translate(759.084 154.608)" fill="#dd6b99"/>
      <rect id="Rectangle_3473" data-name="Rectangle 3473" width="15.712" height="11.242" transform="translate(717.544 143.366)" fill="#dd6b99"/>
      <rect id="Rectangle_3474" data-name="Rectangle 3474" width="15.712" height="11.242" transform="translate(751.228 143.366)" fill="#dd6b99"/>
      <rect id="Rectangle_3475" data-name="Rectangle 3475" width="15.712" height="11.242" transform="translate(725.4 132.124)" fill="#dd6b99"/>
      <rect id="Rectangle_3476" data-name="Rectangle 3476" width="15.712" height="11.242" transform="translate(734.225 120.882)" fill="#dd6b99"/>
      <rect id="Rectangle_3477" data-name="Rectangle 3477" width="15.712" height="11.242" transform="translate(743.372 132.124)" fill="#dd6b99"/>
      <rect id="Rectangle_3478" data-name="Rectangle 3478" width="15.712" height="11.242" transform="translate(783.216 154.608)" fill="#dd6b99"/>
      <rect id="Rectangle_3479" data-name="Rectangle 3479" width="15.712" height="11.242" transform="translate(775.36 165.85)" fill="#dd6b99"/>
      <rect id="Rectangle_3480" data-name="Rectangle 3480" width="15.712" height="11.242" transform="translate(840.467 165.85)" fill="#dd6b99"/>
      <rect id="Rectangle_3481" data-name="Rectangle 3481" width="15.712" height="11.242" transform="translate(832.611 154.608)" fill="#dd6b99"/>
      <rect id="Rectangle_3482" data-name="Rectangle 3482" width="15.712" height="11.242" transform="translate(791.072 143.366)" fill="#dd6b99"/>
      <rect id="Rectangle_3483" data-name="Rectangle 3483" width="15.712" height="11.242" transform="translate(824.755 143.366)" fill="#dd6b99"/>
      <rect id="Rectangle_3484" data-name="Rectangle 3484" width="15.712" height="11.242" transform="translate(798.928 132.124)" fill="#dd6b99"/>
      <rect id="Rectangle_3485" data-name="Rectangle 3485" width="15.712" height="11.242" transform="translate(807.752 120.882)" fill="#dd6b99"/>
      <rect id="Rectangle_3486" data-name="Rectangle 3486" width="15.712" height="11.242" transform="translate(816.899 132.124)" fill="#dd6b99"/>
      <rect id="Rectangle_3487" data-name="Rectangle 3487" width="154.347" height="5.073" transform="translate(701.832 180.387)" fill="#c25484"/>
      <rect id="Rectangle_3488" data-name="Rectangle 3488" width="154.347" height="5.073" transform="translate(701.832 115.809)" fill="#c25484"/>
      <rect id="Rectangle_3489" data-name="Rectangle 3489" width="154.347" height="3.526" transform="translate(701.832 177.091)" fill="#e289b1"/>
      <rect id="Rectangle_3490" data-name="Rectangle 3490" width="154.347" height="3.526" transform="translate(701.832 112.283)" fill="#e289b1"/>
      <rect id="Rectangle_3491" data-name="Rectangle 3491" width="15.712" height="11.242" transform="translate(864.035 162.986)" fill="#dd6b99"/>
      <rect id="Rectangle_3492" data-name="Rectangle 3492" width="15.712" height="11.242" transform="translate(856.179 174.228)" fill="#dd6b99"/>
      <rect id="Rectangle_3493" data-name="Rectangle 3493" width="15.712" height="11.242" transform="translate(921.287 174.228)" fill="#dd6b99"/>
      <rect id="Rectangle_3494" data-name="Rectangle 3494" width="15.712" height="11.242" transform="translate(913.431 162.986)" fill="#dd6b99"/>
      <rect id="Rectangle_3495" data-name="Rectangle 3495" width="15.712" height="11.242" transform="translate(871.891 151.745)" fill="#dd6b99"/>
      <rect id="Rectangle_3496" data-name="Rectangle 3496" width="15.712" height="11.242" transform="translate(905.575 151.745)" fill="#dd6b99"/>
      <rect id="Rectangle_3497" data-name="Rectangle 3497" width="15.712" height="11.242" transform="translate(879.747 140.503)" fill="#dd6b99"/>
      <rect id="Rectangle_3498" data-name="Rectangle 3498" width="15.712" height="11.242" transform="translate(888.572 129.261)" fill="#dd6b99"/>
      <rect id="Rectangle_3499" data-name="Rectangle 3499" width="15.712" height="11.242" transform="translate(897.719 140.503)" fill="#dd6b99"/>
      <rect id="Rectangle_3500" data-name="Rectangle 3500" width="15.712" height="11.242" transform="translate(937.563 162.986)" fill="#dd6b99"/>
      <rect id="Rectangle_3501" data-name="Rectangle 3501" width="15.712" height="11.242" transform="translate(929.707 174.228)" fill="#dd6b99"/>
      <rect id="Rectangle_3502" data-name="Rectangle 3502" width="15.712" height="11.242" transform="translate(994.814 174.228)" fill="#dd6b99"/>
      <rect id="Rectangle_3503" data-name="Rectangle 3503" width="15.712" height="11.242" transform="translate(986.958 162.986)" fill="#dd6b99"/>
      <rect id="Rectangle_3504" data-name="Rectangle 3504" width="15.712" height="11.242" transform="translate(945.419 151.745)" fill="#dd6b99"/>
      <rect id="Rectangle_3505" data-name="Rectangle 3505" width="15.712" height="11.242" transform="translate(979.102 151.745)" fill="#dd6b99"/>
      <rect id="Rectangle_3506" data-name="Rectangle 3506" width="15.712" height="11.242" transform="translate(953.275 140.503)" fill="#dd6b99"/>
      <rect id="Rectangle_3507" data-name="Rectangle 3507" width="15.712" height="11.242" transform="translate(962.099 129.261)" fill="#dd6b99"/>
      <rect id="Rectangle_3508" data-name="Rectangle 3508" width="15.712" height="11.242" transform="translate(971.246 140.503)" fill="#dd6b99"/>
      <rect id="Rectangle_3509" data-name="Rectangle 3509" width="154.347" height="5.073" transform="translate(856.179 188.765)" fill="#c25484"/>
      <rect id="Rectangle_3510" data-name="Rectangle 3510" width="154.347" height="5.073" transform="translate(856.179 124.188)" fill="#c25484"/>
      <rect id="Rectangle_3511" data-name="Rectangle 3511" width="154.347" height="3.526" transform="translate(856.179 185.47)" fill="#e289b1"/>
      <rect id="Rectangle_3512" data-name="Rectangle 3512" width="154.347" height="3.526" transform="translate(856.179 120.662)" fill="#e289b1"/>
      <rect id="Rectangle_3513" data-name="Rectangle 3513" width="15.712" height="11.242" transform="translate(1018.382 171.528)" fill="#dd6b99"/>
      <rect id="Rectangle_3514" data-name="Rectangle 3514" width="15.712" height="11.242" transform="translate(1010.526 182.77)" fill="#dd6b99"/>
      <rect id="Rectangle_3515" data-name="Rectangle 3515" width="15.712" height="11.242" transform="translate(1075.634 182.77)" fill="#dd6b99"/>
      <rect id="Rectangle_3516" data-name="Rectangle 3516" width="15.712" height="11.242" transform="translate(1067.778 171.528)" fill="#dd6b99"/>
      <rect id="Rectangle_3517" data-name="Rectangle 3517" width="15.712" height="11.242" transform="translate(1026.238 160.287)" fill="#dd6b99"/>
      <rect id="Rectangle_3518" data-name="Rectangle 3518" width="15.712" height="11.242" transform="translate(1059.922 160.287)" fill="#dd6b99"/>
      <rect id="Rectangle_3519" data-name="Rectangle 3519" width="15.712" height="11.242" transform="translate(1034.094 149.045)" fill="#dd6b99"/>
      <rect id="Rectangle_3520" data-name="Rectangle 3520" width="15.712" height="11.242" transform="translate(1042.919 137.803)" fill="#dd6b99"/>
      <rect id="Rectangle_3521" data-name="Rectangle 3521" width="15.712" height="11.242" transform="translate(1052.066 149.045)" fill="#dd6b99"/>
      <rect id="Rectangle_3522" data-name="Rectangle 3522" width="15.712" height="11.242" transform="translate(1091.91 171.528)" fill="#dd6b99"/>
      <rect id="Rectangle_3523" data-name="Rectangle 3523" width="15.712" height="11.242" transform="translate(1084.054 182.77)" fill="#dd6b99"/>
      <rect id="Rectangle_3524" data-name="Rectangle 3524" width="15.712" height="11.242" transform="translate(1149.161 182.77)" fill="#dd6b99"/>
      <rect id="Rectangle_3525" data-name="Rectangle 3525" width="15.712" height="11.242" transform="translate(1141.305 171.528)" fill="#dd6b99"/>
      <rect id="Rectangle_3526" data-name="Rectangle 3526" width="15.712" height="11.242" transform="translate(1099.766 160.287)" fill="#dd6b99"/>
      <rect id="Rectangle_3527" data-name="Rectangle 3527" width="15.712" height="11.242" transform="translate(1133.449 160.287)" fill="#dd6b99"/>
      <rect id="Rectangle_3528" data-name="Rectangle 3528" width="15.712" height="11.242" transform="translate(1107.622 149.045)" fill="#dd6b99"/>
      <rect id="Rectangle_3529" data-name="Rectangle 3529" width="15.712" height="11.242" transform="translate(1116.446 137.803)" fill="#dd6b99"/>
      <rect id="Rectangle_3530" data-name="Rectangle 3530" width="15.712" height="11.242" transform="translate(1125.593 149.045)" fill="#dd6b99"/>
      <rect id="Rectangle_3531" data-name="Rectangle 3531" width="154.347" height="5.073" transform="translate(1010.526 197.307)" fill="#c25484"/>
      <rect id="Rectangle_3532" data-name="Rectangle 3532" width="154.347" height="5.073" transform="translate(1010.526 132.73)" fill="#c25484"/>
      <rect id="Rectangle_3533" data-name="Rectangle 3533" width="154.347" height="3.526" transform="translate(1010.526 194.012)" fill="#e289b1"/>
      <rect id="Rectangle_3534" data-name="Rectangle 3534" width="154.347" height="3.526" transform="translate(1010.526 129.204)" fill="#e289b1"/>
      <rect id="Rectangle_3535" data-name="Rectangle 3535" width="15.712" height="11.242" transform="translate(1172.729 180.128)" fill="#dd6b99"/>
      <rect id="Rectangle_3536" data-name="Rectangle 3536" width="15.712" height="11.242" transform="translate(1164.873 191.369)" fill="#dd6b99"/>
      <rect id="Rectangle_3537" data-name="Rectangle 3537" width="15.712" height="11.242" transform="translate(1229.981 191.369)" fill="#dd6b99"/>
      <rect id="Rectangle_3538" data-name="Rectangle 3538" width="15.712" height="11.242" transform="translate(1222.125 180.128)" fill="#dd6b99"/>
      <rect id="Rectangle_3539" data-name="Rectangle 3539" width="15.712" height="11.242" transform="translate(1180.585 168.886)" fill="#dd6b99"/>
      <rect id="Rectangle_3540" data-name="Rectangle 3540" width="15.712" height="11.242" transform="translate(1214.269 168.886)" fill="#dd6b99"/>
      <rect id="Rectangle_3541" data-name="Rectangle 3541" width="15.712" height="11.242" transform="translate(1188.441 157.644)" fill="#dd6b99"/>
      <rect id="Rectangle_3542" data-name="Rectangle 3542" width="15.712" height="11.242" transform="translate(1197.266 146.402)" fill="#dd6b99"/>
      <rect id="Rectangle_3543" data-name="Rectangle 3543" width="15.712" height="11.242" transform="translate(1206.413 157.644)" fill="#dd6b99"/>
      <rect id="Rectangle_3544" data-name="Rectangle 3544" width="15.712" height="11.242" transform="translate(1246.257 180.128)" fill="#dd6b99"/>
      <rect id="Rectangle_3545" data-name="Rectangle 3545" width="15.712" height="11.242" transform="translate(1238.401 191.369)" fill="#dd6b99"/>
      <rect id="Rectangle_3546" data-name="Rectangle 3546" width="15.712" height="11.242" transform="translate(1303.508 191.369)" fill="#dd6b99"/>
      <rect id="Rectangle_3547" data-name="Rectangle 3547" width="15.712" height="11.242" transform="translate(1295.652 180.128)" fill="#dd6b99"/>
      <rect id="Rectangle_3548" data-name="Rectangle 3548" width="15.712" height="11.242" transform="translate(1254.113 168.886)" fill="#dd6b99"/>
      <rect id="Rectangle_3549" data-name="Rectangle 3549" width="15.712" height="11.242" transform="translate(1287.796 168.886)" fill="#dd6b99"/>
      <rect id="Rectangle_3550" data-name="Rectangle 3550" width="15.712" height="11.242" transform="translate(1261.969 157.644)" fill="#dd6b99"/>
      <rect id="Rectangle_3551" data-name="Rectangle 3551" width="15.712" height="11.242" transform="translate(1270.793 146.402)" fill="#dd6b99"/>
      <rect id="Rectangle_3552" data-name="Rectangle 3552" width="15.712" height="11.242" transform="translate(1279.94 157.644)" fill="#dd6b99"/>
      <rect id="Rectangle_3553" data-name="Rectangle 3553" width="154.347" height="5.073" transform="translate(1164.873 205.907)" fill="#c25484"/>
      <rect id="Rectangle_3554" data-name="Rectangle 3554" width="154.347" height="5.073" transform="translate(1164.873 141.329)" fill="#c25484"/>
      <rect id="Rectangle_3555" data-name="Rectangle 3555" width="154.347" height="3.526" transform="translate(1164.873 202.611)" fill="#e289b1"/>
      <rect id="Rectangle_3556" data-name="Rectangle 3556" width="154.347" height="3.526" transform="translate(1164.873 137.803)" fill="#e289b1"/>
      <rect id="Rectangle_3557" data-name="Rectangle 3557" width="15.712" height="11.242" transform="translate(1327.076 188.506)" fill="#dd6b99"/>
      <rect id="Rectangle_3558" data-name="Rectangle 3558" width="15.712" height="11.242" transform="translate(1319.22 199.748)" fill="#dd6b99"/>
      <rect id="Rectangle_3559" data-name="Rectangle 3559" width="15.712" height="11.242" transform="translate(1384.328 199.748)" fill="#dd6b99"/>
      <rect id="Rectangle_3560" data-name="Rectangle 3560" width="15.712" height="11.242" transform="translate(1376.472 188.506)" fill="#dd6b99"/>
      <rect id="Rectangle_3561" data-name="Rectangle 3561" width="15.712" height="11.242" transform="translate(1334.932 177.265)" fill="#dd6b99"/>
      <rect id="Rectangle_3562" data-name="Rectangle 3562" width="15.712" height="11.242" transform="translate(1368.616 177.265)" fill="#dd6b99"/>
      <rect id="Rectangle_3563" data-name="Rectangle 3563" width="15.712" height="11.242" transform="translate(1342.788 166.023)" fill="#dd6b99"/>
      <rect id="Rectangle_3564" data-name="Rectangle 3564" width="15.712" height="11.242" transform="translate(1351.612 154.781)" fill="#dd6b99"/>
      <rect id="Rectangle_3565" data-name="Rectangle 3565" width="15.712" height="11.242" transform="translate(1360.76 166.023)" fill="#dd6b99"/>
      <rect id="Rectangle_3566" data-name="Rectangle 3566" width="15.712" height="11.242" transform="translate(1400.604 188.506)" fill="#dd6b99"/>
      <rect id="Rectangle_3567" data-name="Rectangle 3567" width="15.712" height="11.242" transform="translate(1392.748 199.748)" fill="#dd6b99"/>
      <rect id="Rectangle_3568" data-name="Rectangle 3568" width="15.712" height="11.242" transform="translate(1457.855 199.748)" fill="#dd6b99"/>
      <rect id="Rectangle_3569" data-name="Rectangle 3569" width="15.712" height="11.242" transform="translate(1449.999 188.506)" fill="#dd6b99"/>
      <rect id="Rectangle_3570" data-name="Rectangle 3570" width="15.712" height="11.242" transform="translate(1408.459 177.265)" fill="#dd6b99"/>
      <rect id="Rectangle_3571" data-name="Rectangle 3571" width="15.712" height="11.242" transform="translate(1442.143 177.265)" fill="#dd6b99"/>
      <rect id="Rectangle_3572" data-name="Rectangle 3572" width="15.712" height="11.242" transform="translate(1416.315 166.023)" fill="#dd6b99"/>
      <rect id="Rectangle_3573" data-name="Rectangle 3573" width="15.712" height="11.242" transform="translate(1425.14 154.781)" fill="#dd6b99"/>
      <rect id="Rectangle_3574" data-name="Rectangle 3574" width="15.712" height="11.242" transform="translate(1434.287 166.023)" fill="#dd6b99"/>
      <rect id="Rectangle_3575" data-name="Rectangle 3575" width="154.347" height="5.073" transform="translate(1319.22 214.285)" fill="#c25484"/>
      <rect id="Rectangle_3576" data-name="Rectangle 3576" width="154.347" height="5.073" transform="translate(1319.22 149.708)" fill="#c25484"/>
      <rect id="Rectangle_3577" data-name="Rectangle 3577" width="154.347" height="3.526" transform="translate(1319.22 210.99)" fill="#e289b1"/>
      <rect id="Rectangle_3578" data-name="Rectangle 3578" width="154.347" height="3.526" transform="translate(1319.22 146.182)" fill="#e289b1"/>
      <rect id="Rectangle_3579" data-name="Rectangle 3579" width="15.712" height="11.242" transform="translate(1481.423 197.432)" fill="#dd6b99"/>
      <rect id="Rectangle_3580" data-name="Rectangle 3580" width="15.712" height="11.242" transform="translate(1473.567 208.674)" fill="#dd6b99"/>
      <rect id="Rectangle_3581" data-name="Rectangle 3581" width="15.712" height="11.242" transform="translate(1538.675 208.674)" fill="#dd6b99"/>
      <rect id="Rectangle_3582" data-name="Rectangle 3582" width="15.712" height="11.242" transform="translate(1530.819 197.432)" fill="#dd6b99"/>
      <rect id="Rectangle_3583" data-name="Rectangle 3583" width="15.712" height="11.242" transform="translate(1489.279 186.19)" fill="#dd6b99"/>
      <rect id="Rectangle_3584" data-name="Rectangle 3584" width="15.712" height="11.242" transform="translate(1522.963 186.19)" fill="#dd6b99"/>
      <rect id="Rectangle_3585" data-name="Rectangle 3585" width="15.712" height="11.242" transform="translate(1497.135 174.948)" fill="#dd6b99"/>
      <rect id="Rectangle_3586" data-name="Rectangle 3586" width="15.712" height="11.242" transform="translate(1505.959 163.707)" fill="#dd6b99"/>
      <rect id="Rectangle_3587" data-name="Rectangle 3587" width="15.712" height="11.242" transform="translate(1515.107 174.948)" fill="#dd6b99"/>
      <rect id="Rectangle_3588" data-name="Rectangle 3588" width="15.712" height="11.242" transform="translate(1554.951 197.432)" fill="#dd6b99"/>
      <rect id="Rectangle_3589" data-name="Rectangle 3589" width="15.712" height="11.242" transform="translate(1547.095 208.674)" fill="#dd6b99"/>
      <rect id="Rectangle_3590" data-name="Rectangle 3590" width="15.712" height="11.242" transform="translate(1612.202 208.674)" fill="#dd6b99"/>
      <rect id="Rectangle_3591" data-name="Rectangle 3591" width="15.712" height="11.242" transform="translate(1604.346 197.432)" fill="#dd6b99"/>
      <rect id="Rectangle_3592" data-name="Rectangle 3592" width="15.712" height="11.242" transform="translate(1562.807 186.19)" fill="#dd6b99"/>
      <rect id="Rectangle_3593" data-name="Rectangle 3593" width="15.712" height="11.242" transform="translate(1596.49 186.19)" fill="#dd6b99"/>
      <rect id="Rectangle_3594" data-name="Rectangle 3594" width="15.712" height="11.242" transform="translate(1570.662 174.948)" fill="#dd6b99"/>
      <rect id="Rectangle_3595" data-name="Rectangle 3595" width="15.712" height="11.242" transform="translate(1579.487 163.707)" fill="#dd6b99"/>
      <rect id="Rectangle_3596" data-name="Rectangle 3596" width="15.712" height="11.242" transform="translate(1588.634 174.948)" fill="#dd6b99"/>
      <rect id="Rectangle_3597" data-name="Rectangle 3597" width="154.347" height="5.073" transform="translate(1473.567 223.211)" fill="#c25484"/>
      <rect id="Rectangle_3598" data-name="Rectangle 3598" width="154.347" height="5.073" transform="translate(1473.567 158.633)" fill="#c25484"/>
      <rect id="Rectangle_3599" data-name="Rectangle 3599" width="154.347" height="3.526" transform="translate(1473.567 219.916)" fill="#e289b1"/>
      <rect id="Rectangle_3600" data-name="Rectangle 3600" width="154.347" height="3.526" transform="translate(1473.567 155.107)" fill="#e289b1"/>
    </g>
  </g>
</svg>
