<svg xmlns="http://www.w3.org/2000/svg" width="660.723" height="87.15" viewBox="0 0 660.723 87.15">
  <g id="Group_383" data-name="Group 383" transform="translate(-609.802 -4920.054)">
    <g id="Group_266" data-name="Group 266" transform="translate(902.543 4920.242)">
      <path id="Path_224" data-name="Path 224" d="M996.981,5793.729a36.846,36.846,0,0,1,73.692,0" transform="translate(-996.241 -5756.883)" fill="#dd6b99"/>
      <path id="Path_225" data-name="Path 225" d="M982.17,6488.253s-4.429,46.45,8.384,46.45c14.7,0,15.79-9.4,14.218-14.218,0,0,.205,18.228,17.9,18.228,14.11,0,14.11-16.2,14.11-16.2s-.552,12.092,11.3,12.092c11.4,0,7.777-48.141,7.777-48.141" transform="translate(-981.43 -6451.751)" fill="#dd6b99"/>
      <ellipse id="Ellipse_127" data-name="Ellipse 127" cx="8.8" cy="8.8" rx="8.8" ry="8.8" transform="translate(11.403 18.678)" fill="#fff"/>
      <ellipse id="Ellipse_128" data-name="Ellipse 128" cx="4.184" cy="4.184" rx="4.184" ry="4.184" transform="translate(17.518 25.344)"/>
      <ellipse id="Ellipse_129" data-name="Ellipse 129" cx="8.8" cy="8.8" rx="8.8" ry="8.8" transform="translate(42.751 19.728)" fill="#fff"/>
      <ellipse id="Ellipse_130" data-name="Ellipse 130" cx="4.184" cy="4.184" rx="4.184" ry="4.184" transform="translate(48.838 22.274)"/>
    </g>
    <g id="Group_286" data-name="Group 286" transform="translate(609.802 4920.054)">
      <path id="Path_229" data-name="Path 229" d="M6404.052,7811.735q-4.644,0-9.288,0c-.843,0-1.115-.278-1.111-1.113.014-2.786.059-5.573.02-8.358-.012-.877.333-1.125,1.131-1.123,5.824.014,11.649,0,17.474.016,2.16.007,2.173.042,2.2,2.184.027,2.42.031,4.841.041,7.261,0,.853-.266,1.132-1.091,1.133Q6408.738,7811.738,6404.052,7811.735Z" transform="translate(-6362.607 -7728.093)" fill="#dd6b99"/>
      <path id="Path_230" data-name="Path 230" d="M6669.987,7801.279c3.095,0,6.19.019,9.285-.013.79-.008,1.029.306,1.023,1.054-.021,2.785,0,5.569.008,8.354,0,.916-.178,1.168-1.125,1.17q-8.361.018-16.723,0c-.674,0-1.348-.014-2.022-.034-.691-.021-.99-.373-.984-1.078.021-2.756.011-5.513.014-8.27,0-.891.3-1.187,1.239-1.189,3.1-.008,6.19,0,9.285,0Z" transform="translate(-6596.98 -7728.204)" fill="#dd6b99"/>
      <path id="Path_231" data-name="Path 231" d="M6836.854,7188.2q0-1.813,0-3.627c0-1.056.237-1.325,1.354-1.328,2.023-.006,4.046.04,6.069.051.618,0,1.234-.038,1.852-.056.723-.022,1.081.276,1.073,1.052-.024,2.5-.01,5-.009,7.5,0,1.218-.311,1.451-1.572,1.443-2.132-.015-4.266.044-6.4.073-.169,0-.337.012-.506.012-1.627,0-1.858-.222-1.86-1.83Q6836.854,7189.848,6836.854,7188.2Z" transform="translate(-6753.413 -7183.242)" fill="#dd6b99"/>
      <path id="Path_232" data-name="Path 232" d="M6315.639,7188.2c0,1.293.008,2.586,0,3.88-.008.976-.23,1.23-1.179,1.229-2.7-.006-5.394-.037-8.091-.068-.813-.01-1.032-.532-1.03-1.242,0-2.192.073-4.389-.02-6.578-.108-2.579.4-2.119,2.26-2.128,2.331-.011,4.661-.022,6.991-.049.861-.01,1.108.223,1.1,1.078-.011,1.293,0,2.586,0,3.879Z" transform="translate(-6284.701 -7183.244)" fill="#dd6b99"/>
      <path id="Path_233" data-name="Path 233" d="M6244.588,7301.052c-2.561,0-5.122,0-7.682-.024-1.346-.012-1.649-.32-1.652-1.648-.006-2.506.006-5.011.013-7.516,0-1.088-.175-1.279-1.271-1.281-2.562-.007-5.125,0-7.687,0-1.221,0-1.565-.394-1.551-1.641q.045-3.8.052-7.594c0-1-.257-1.235-1.257-1.235-2.507,0-5.013.007-7.519,0-1.439,0-1.724-.293-1.728-1.734q-.007-3.671,0-7.342c.006-1.216-.166-1.412-1.411-1.414q-3.886-.01-7.771,0c-.894,0-1.152.273-1.148,1.164.013,2.562.031,5.122.032,7.684,0,1.352-.306,1.642-1.623,1.64q-14.188-.025-28.377-.045c-1.277,0-1.576-.226-1.583-1.489-.015-2.532.011-5.064.056-7.6.017-.974-.352-1.358-1.348-1.35-2.561.021-5.12.031-7.681.011-1.19-.011-1.331.076-1.334,1.251-.006,2.617.008,5.235-.012,7.854-.008,1.152-.277,1.376-1.4,1.372q-3.844-.01-7.687,0c-1.115,0-1.348.234-1.351,1.334-.006,2.478,0,4.954,0,7.432,0,1.413-.284,1.7-1.662,1.7-2.2,0-4.393-.012-6.589,0-2.168.016-2.3-.4-2.276,2.312.021,2.309.012,4.617,0,6.925,0,.951-.272,1.248-1.085,1.25-2.251,0-4.5.027-6.754-.012-2.154-.038-2.19.026-2.19,2.133q0,13.677-.075,27.355c-.006,1.406.325,1.773,1.7,1.761,2.2-.02,4.393-.067,6.587-.008,1.346.037,1.7.212,1.768-1.766.009-.226,0-.45,0-.676,0-4.081.008-8.163,0-12.244,0-1.632-.052-3.263-.076-4.895-.015-.964.313-1.406,1.048-1.4q4.012.012,8.023.031c1.405.007,1.587.19,1.587,1.622q0,8.909,0,17.817c0,1.263.223,1.487,1.459,1.494q3.841.023,7.682.028c1.026,0,1.155-.125,1.158-1.179.008-2.561,0-5.123,0-7.685,0-1.472.169-1.637,1.659-1.637H6212.8c1.5,0,1.676.179,1.677,1.721,0,2.478,0,4.954,0,7.431,0,1.106.24,1.345,1.338,1.349,2.617.011,5.234-.006,7.852.021.753.008,1.105-.329,1.129-1.039.02-.562-.013-1.124-.014-1.687-.006-5.6,0-11.2-.022-16.8,0-1.141.24-1.454,1.414-1.457q3.886-.012,7.771,0c1.354,0,1.5.146,1.5,1.509q0,8.95,0,17.9c0,1.271.279,1.55,1.529,1.551,2.5,0,5.009-.012,7.514,0,1.365,0,1.627-.232,1.627-1.606q0-13.469,0-26.937c0-.366-.008-.732.019-1.1C6246.236,7301.324,6245.977,7301.054,6244.588,7301.052Zm-71.964-1.922c-.024,1.538-.083,2.034-1.823,1.922-1.2-.077-2.416-.015-3.623-.015v.025c-1.32,0-2.641,0-3.96,0-.9,0-1.2-.233-1.226-1.2-.042-1.46-.019-2.922-.02-4.383,0-1.265-.013-2.529.007-3.793.017-1.077.246-1.3,1.283-1.3q4-.007,8.007,0c1.044,0,1.428.475,1.41,1.52C6172.64,7294.312,6172.662,7296.722,6172.624,7299.13Zm40.683,1.927c-1.406,0-2.812,0-4.219,0-1.295,0-2.588-.012-3.882,0-.957.01-1.314-.2-1.328-1.11-.046-2.869-.031-5.74-.012-8.609a.9.9,0,0,1,1.04-.959q4.22.012,8.44,0a.984.984,0,0,1,1.108,1.089q.026,4.263,0,8.526C6214.456,7300.714,6214.011,7301.056,6213.307,7301.057Z" transform="translate(-6131.033 -7259.404)" fill="#dd6b99"/>
    </g>
    <g id="Group_287" data-name="Group 287" transform="translate(1155.401 4923.244)">
      <path id="Path_229-2" data-name="Path 229" d="M6404.052,7811.735q-4.644,0-9.288,0c-.843,0-1.115-.278-1.111-1.113.014-2.786.059-5.573.02-8.358-.012-.877.333-1.125,1.131-1.123,5.824.014,11.649,0,17.474.016,2.16.007,2.173.042,2.2,2.184.027,2.42.031,4.841.041,7.261,0,.853-.266,1.132-1.091,1.133Q6408.738,7811.738,6404.052,7811.735Z" transform="translate(-6362.607 -7728.093)" fill="#dd6b99"/>
      <path id="Path_230-2" data-name="Path 230" d="M6669.987,7801.279c3.095,0,6.19.019,9.285-.013.79-.008,1.029.306,1.023,1.054-.021,2.785,0,5.569.008,8.354,0,.916-.178,1.168-1.125,1.17q-8.361.018-16.723,0c-.674,0-1.348-.014-2.022-.034-.691-.021-.99-.373-.984-1.078.021-2.756.011-5.513.014-8.27,0-.891.3-1.187,1.239-1.189,3.1-.008,6.19,0,9.285,0Z" transform="translate(-6596.98 -7728.204)" fill="#dd6b99"/>
      <path id="Path_231-2" data-name="Path 231" d="M6836.854,7188.2q0-1.813,0-3.627c0-1.056.237-1.325,1.354-1.328,2.023-.006,4.046.04,6.069.051.618,0,1.234-.038,1.852-.056.723-.022,1.081.276,1.073,1.052-.024,2.5-.01,5-.009,7.5,0,1.218-.311,1.451-1.572,1.443-2.132-.015-4.266.044-6.4.073-.169,0-.337.012-.506.012-1.627,0-1.858-.222-1.86-1.83Q6836.854,7189.848,6836.854,7188.2Z" transform="translate(-6753.413 -7183.242)" fill="#dd6b99"/>
      <path id="Path_232-2" data-name="Path 232" d="M6315.639,7188.2c0,1.293.008,2.586,0,3.88-.008.976-.23,1.23-1.179,1.229-2.7-.006-5.394-.037-8.091-.068-.813-.01-1.032-.532-1.03-1.242,0-2.192.073-4.389-.02-6.578-.108-2.579.4-2.119,2.26-2.128,2.331-.011,4.661-.022,6.991-.049.861-.01,1.108.223,1.1,1.078-.011,1.293,0,2.586,0,3.879Z" transform="translate(-6284.701 -7183.244)" fill="#dd6b99"/>
      <path id="Path_233-2" data-name="Path 233" d="M6244.588,7301.052c-2.561,0-5.122,0-7.682-.024-1.346-.012-1.649-.32-1.652-1.648-.006-2.506.006-5.011.013-7.516,0-1.088-.175-1.279-1.271-1.281-2.562-.007-5.125,0-7.687,0-1.221,0-1.565-.394-1.551-1.641q.045-3.8.052-7.594c0-1-.257-1.235-1.257-1.235-2.507,0-5.013.007-7.519,0-1.439,0-1.724-.293-1.728-1.734q-.007-3.671,0-7.342c.006-1.216-.166-1.412-1.411-1.414q-3.886-.01-7.771,0c-.894,0-1.152.273-1.148,1.164.013,2.562.031,5.122.032,7.684,0,1.352-.306,1.642-1.623,1.64q-14.188-.025-28.377-.045c-1.277,0-1.576-.226-1.583-1.489-.015-2.532.011-5.064.056-7.6.017-.974-.352-1.358-1.348-1.35-2.561.021-5.12.031-7.681.011-1.19-.011-1.331.076-1.334,1.251-.006,2.617.008,5.235-.012,7.854-.008,1.152-.277,1.376-1.4,1.372q-3.844-.01-7.687,0c-1.115,0-1.348.234-1.351,1.334-.006,2.478,0,4.954,0,7.432,0,1.413-.284,1.7-1.662,1.7-2.2,0-4.393-.012-6.589,0-2.168.016-2.3-.4-2.276,2.312.021,2.309.012,4.617,0,6.925,0,.951-.272,1.248-1.085,1.25-2.251,0-4.5.027-6.754-.012-2.154-.038-2.19.026-2.19,2.133q0,13.677-.075,27.355c-.006,1.406.325,1.773,1.7,1.761,2.2-.02,4.393-.067,6.587-.008,1.346.037,1.7.212,1.768-1.766.009-.226,0-.45,0-.676,0-4.081.008-8.163,0-12.244,0-1.632-.052-3.263-.076-4.895-.015-.964.313-1.406,1.048-1.4q4.012.012,8.023.031c1.405.007,1.587.19,1.587,1.622q0,8.909,0,17.817c0,1.263.223,1.487,1.459,1.494q3.841.023,7.682.028c1.026,0,1.155-.125,1.158-1.179.008-2.561,0-5.123,0-7.685,0-1.472.169-1.637,1.659-1.637H6212.8c1.5,0,1.676.179,1.677,1.721,0,2.478,0,4.954,0,7.431,0,1.106.24,1.345,1.338,1.349,2.617.011,5.234-.006,7.852.021.753.008,1.105-.329,1.129-1.039.02-.562-.013-1.124-.014-1.687-.006-5.6,0-11.2-.022-16.8,0-1.141.24-1.454,1.414-1.457q3.886-.012,7.771,0c1.354,0,1.5.146,1.5,1.509q0,8.95,0,17.9c0,1.271.279,1.55,1.529,1.551,2.5,0,5.009-.012,7.514,0,1.365,0,1.627-.232,1.627-1.606q0-13.469,0-26.937c0-.366-.008-.732.019-1.1C6246.236,7301.324,6245.977,7301.054,6244.588,7301.052Zm-71.964-1.922c-.024,1.538-.083,2.034-1.823,1.922-1.2-.077-2.416-.015-3.623-.015v.025c-1.32,0-2.641,0-3.96,0-.9,0-1.2-.233-1.226-1.2-.042-1.46-.019-2.922-.02-4.383,0-1.265-.013-2.529.007-3.793.017-1.077.246-1.3,1.283-1.3q4-.007,8.007,0c1.044,0,1.428.475,1.41,1.52C6172.64,7294.312,6172.662,7296.722,6172.624,7299.13Zm40.683,1.927c-1.406,0-2.812,0-4.219,0-1.295,0-2.588-.012-3.882,0-.957.01-1.314-.2-1.328-1.11-.046-2.869-.031-5.74-.012-8.609a.9.9,0,0,1,1.04-.959q4.22.012,8.44,0a.984.984,0,0,1,1.108,1.089q.026,4.263,0,8.526C6214.456,7300.714,6214.011,7301.056,6213.307,7301.057Z" transform="translate(-6131.033 -7259.404)" fill="#dd6b99"/>
    </g>
  </g>
</svg>
