<svg xmlns="http://www.w3.org/2000/svg" width="1543.469" height="217.37" viewBox="0 0 1543.469 217.37">
  <g id="Group_381" data-name="Group 381" transform="translate(-377 -2716)">
    <path id="Path_187" data-name="Path 187" d="M899.72,443.321v75.312c0,.821-1.757,1.486-3.925,1.486h0c-2.168,0-3.925-.665-3.925-1.486v-75.4c0-.409.44-.78,1.15-1.049a7.953,7.953,0,0,1,2.585-.434C897.865,441.711,899.72,442.464,899.72,443.321Z" transform="translate(-328.87 2413.25)" fill="#50b9af"/>
    <path id="Path_188" data-name="Path 188" d="M970.65,443.321v75.31c0,.822-1.76,1.488-3.93,1.488h0c-2.17,0-3.93-.667-3.93-1.488v-75.4c0-.409.44-.78,1.15-1.049a8.038,8.038,0,0,1,2.588-.434C968.792,441.711,970.65,442.463,970.65,443.321Z" transform="translate(-328.87 2412.25)" fill="#50b9af"/>
    <rect id="Rectangle_3620" data-name="Rectangle 3620" width="7.856" height="70.925" rx="1.737" transform="translate(638.849 2863.963) rotate(90)" fill="#50b9af"/>
    <rect id="Rectangle_3621" data-name="Rectangle 3621" width="7.856" height="70.925" rx="1.737" transform="translate(638.849 2890.25) rotate(90)" fill="#50b9af"/>
    <path id="Path_189" data-name="Path 189" d="M965.27,623.34v4.38a1.739,1.739,0,0,1-1.73,1.74H896.09a1.741,1.741,0,0,1-1.74-1.74v-4.38a1.748,1.748,0,0,1,1.74-1.74h67.45A1.746,1.746,0,0,1,965.27,623.34Z" transform="translate(-327.87 2294.364)" fill="#50b9af"/>
    <g id="Group_190" data-name="Group 190" transform="translate(377 2716)">
      <rect id="Rectangle_3381" data-name="Rectangle 3381" width="15.712" height="11.242" transform="translate(1519.902 42.325)" fill="#dd6b99"/>
      <rect id="Rectangle_3382" data-name="Rectangle 3382" width="15.712" height="11.242" transform="translate(1527.758 53.567)" fill="#dd6b99"/>
      <rect id="Rectangle_3383" data-name="Rectangle 3383" width="15.712" height="11.242" transform="translate(1462.65 53.567)" fill="#dd6b99"/>
      <rect id="Rectangle_3384" data-name="Rectangle 3384" width="15.712" height="11.242" transform="translate(1470.506 42.325)" fill="#dd6b99"/>
      <rect id="Rectangle_3385" data-name="Rectangle 3385" width="15.712" height="11.242" transform="translate(1512.046 31.083)" fill="#dd6b99"/>
      <rect id="Rectangle_3386" data-name="Rectangle 3386" width="15.712" height="11.242" transform="translate(1478.362 31.083)" fill="#dd6b99"/>
      <rect id="Rectangle_3387" data-name="Rectangle 3387" width="15.712" height="11.242" transform="translate(1504.19 19.841)" fill="#dd6b99"/>
      <rect id="Rectangle_3388" data-name="Rectangle 3388" width="15.712" height="11.242" transform="translate(1495.365 8.599)" fill="#dd6b99"/>
      <rect id="Rectangle_3389" data-name="Rectangle 3389" width="15.712" height="11.242" transform="translate(1486.218 19.841)" fill="#dd6b99"/>
      <rect id="Rectangle_3390" data-name="Rectangle 3390" width="15.712" height="11.242" transform="translate(1446.374 42.325)" fill="#dd6b99"/>
      <rect id="Rectangle_3391" data-name="Rectangle 3391" width="15.712" height="11.242" transform="translate(1454.23 53.567)" fill="#dd6b99"/>
      <rect id="Rectangle_3392" data-name="Rectangle 3392" width="15.712" height="11.242" transform="translate(1389.123 53.567)" fill="#dd6b99"/>
      <rect id="Rectangle_3393" data-name="Rectangle 3393" width="15.712" height="11.242" transform="translate(1396.979 42.325)" fill="#dd6b99"/>
      <rect id="Rectangle_3394" data-name="Rectangle 3394" width="15.712" height="11.242" transform="translate(1438.518 31.083)" fill="#dd6b99"/>
      <rect id="Rectangle_3395" data-name="Rectangle 3395" width="15.712" height="11.242" transform="translate(1404.834 31.083)" fill="#dd6b99"/>
      <rect id="Rectangle_3396" data-name="Rectangle 3396" width="15.712" height="11.242" transform="translate(1430.662 19.841)" fill="#dd6b99"/>
      <rect id="Rectangle_3397" data-name="Rectangle 3397" width="15.712" height="11.242" transform="translate(1421.838 8.599)" fill="#dd6b99"/>
      <rect id="Rectangle_3398" data-name="Rectangle 3398" width="15.712" height="11.242" transform="translate(1412.69 19.841)" fill="#dd6b99"/>
      <rect id="Rectangle_3399" data-name="Rectangle 3399" width="154.347" height="5.073" transform="translate(1389.123 68.104)" fill="#c25484"/>
      <rect id="Rectangle_3400" data-name="Rectangle 3400" width="154.347" height="5.073" transform="translate(1389.123 3.526)" fill="#c25484"/>
      <rect id="Rectangle_3401" data-name="Rectangle 3401" width="154.347" height="3.526" transform="translate(1389.123 64.808)" fill="#e289b1"/>
      <rect id="Rectangle_3402" data-name="Rectangle 3402" width="154.347" height="3.526" transform="translate(1389.123 0)" fill="#e289b1"/>
      <rect id="Rectangle_3403" data-name="Rectangle 3403" width="15.712" height="11.242" transform="translate(1365.555 50.924)" fill="#dd6b99"/>
      <rect id="Rectangle_3404" data-name="Rectangle 3404" width="15.712" height="11.242" transform="translate(1373.411 62.166)" fill="#dd6b99"/>
      <rect id="Rectangle_3405" data-name="Rectangle 3405" width="15.712" height="11.242" transform="translate(1308.303 62.166)" fill="#dd6b99"/>
      <rect id="Rectangle_3406" data-name="Rectangle 3406" width="15.712" height="11.242" transform="translate(1316.159 50.924)" fill="#dd6b99"/>
      <rect id="Rectangle_3407" data-name="Rectangle 3407" width="15.712" height="11.242" transform="translate(1357.699 39.682)" fill="#dd6b99"/>
      <rect id="Rectangle_3408" data-name="Rectangle 3408" width="15.712" height="11.242" transform="translate(1324.015 39.682)" fill="#dd6b99"/>
      <rect id="Rectangle_3409" data-name="Rectangle 3409" width="15.712" height="11.242" transform="translate(1349.843 28.44)" fill="#dd6b99"/>
      <rect id="Rectangle_3410" data-name="Rectangle 3410" width="15.712" height="11.242" transform="translate(1341.018 17.199)" fill="#dd6b99"/>
      <rect id="Rectangle_3411" data-name="Rectangle 3411" width="15.712" height="11.242" transform="translate(1331.871 28.44)" fill="#dd6b99"/>
      <rect id="Rectangle_3412" data-name="Rectangle 3412" width="15.712" height="11.242" transform="translate(1292.027 50.924)" fill="#dd6b99"/>
      <rect id="Rectangle_3413" data-name="Rectangle 3413" width="15.712" height="11.242" transform="translate(1299.883 62.166)" fill="#dd6b99"/>
      <rect id="Rectangle_3414" data-name="Rectangle 3414" width="15.712" height="11.242" transform="translate(1234.776 62.166)" fill="#dd6b99"/>
      <rect id="Rectangle_3415" data-name="Rectangle 3415" width="15.712" height="11.242" transform="translate(1242.632 50.924)" fill="#dd6b99"/>
      <rect id="Rectangle_3416" data-name="Rectangle 3416" width="15.712" height="11.242" transform="translate(1284.171 39.682)" fill="#dd6b99"/>
      <rect id="Rectangle_3417" data-name="Rectangle 3417" width="15.712" height="11.242" transform="translate(1250.488 39.682)" fill="#dd6b99"/>
      <rect id="Rectangle_3418" data-name="Rectangle 3418" width="15.712" height="11.242" transform="translate(1276.315 28.44)" fill="#dd6b99"/>
      <rect id="Rectangle_3419" data-name="Rectangle 3419" width="15.712" height="11.242" transform="translate(1267.491 17.199)" fill="#dd6b99"/>
      <rect id="Rectangle_3420" data-name="Rectangle 3420" width="15.712" height="11.242" transform="translate(1258.344 28.44)" fill="#dd6b99"/>
      <rect id="Rectangle_3421" data-name="Rectangle 3421" width="154.347" height="5.073" transform="translate(1234.776 76.703)" fill="#c25484"/>
      <rect id="Rectangle_3422" data-name="Rectangle 3422" width="154.347" height="5.073" transform="translate(1234.776 12.125)" fill="#c25484"/>
      <rect id="Rectangle_3423" data-name="Rectangle 3423" width="154.347" height="3.526" transform="translate(1234.776 73.408)" fill="#e289b1"/>
      <rect id="Rectangle_3424" data-name="Rectangle 3424" width="154.347" height="3.526" transform="translate(1234.776 8.599)" fill="#e289b1"/>
      <rect id="Rectangle_3425" data-name="Rectangle 3425" width="15.712" height="11.242" transform="translate(1211.208 59.303)" fill="#dd6b99"/>
      <rect id="Rectangle_3426" data-name="Rectangle 3426" width="15.712" height="11.242" transform="translate(1219.064 70.545)" fill="#dd6b99"/>
      <rect id="Rectangle_3427" data-name="Rectangle 3427" width="15.712" height="11.242" transform="translate(1153.956 70.545)" fill="#dd6b99"/>
      <rect id="Rectangle_3428" data-name="Rectangle 3428" width="15.712" height="11.242" transform="translate(1161.812 59.303)" fill="#dd6b99"/>
      <rect id="Rectangle_3429" data-name="Rectangle 3429" width="15.712" height="11.242" transform="translate(1203.352 48.061)" fill="#dd6b99"/>
      <rect id="Rectangle_3430" data-name="Rectangle 3430" width="15.712" height="11.242" transform="translate(1169.668 48.061)" fill="#dd6b99"/>
      <rect id="Rectangle_3431" data-name="Rectangle 3431" width="15.712" height="11.242" transform="translate(1195.496 36.819)" fill="#dd6b99"/>
      <rect id="Rectangle_3432" data-name="Rectangle 3432" width="15.712" height="11.242" transform="translate(1186.671 25.577)" fill="#dd6b99"/>
      <rect id="Rectangle_3433" data-name="Rectangle 3433" width="15.712" height="11.242" transform="translate(1177.524 36.819)" fill="#dd6b99"/>
      <rect id="Rectangle_3434" data-name="Rectangle 3434" width="15.712" height="11.242" transform="translate(1137.68 59.303)" fill="#dd6b99"/>
      <rect id="Rectangle_3435" data-name="Rectangle 3435" width="15.712" height="11.242" transform="translate(1145.536 70.545)" fill="#dd6b99"/>
      <rect id="Rectangle_3436" data-name="Rectangle 3436" width="15.712" height="11.242" transform="translate(1080.429 70.545)" fill="#dd6b99"/>
      <rect id="Rectangle_3437" data-name="Rectangle 3437" width="15.712" height="11.242" transform="translate(1088.285 59.303)" fill="#dd6b99"/>
      <rect id="Rectangle_3438" data-name="Rectangle 3438" width="15.712" height="11.242" transform="translate(1129.824 48.061)" fill="#dd6b99"/>
      <rect id="Rectangle_3439" data-name="Rectangle 3439" width="15.712" height="11.242" transform="translate(1096.141 48.061)" fill="#dd6b99"/>
      <rect id="Rectangle_3440" data-name="Rectangle 3440" width="15.712" height="11.242" transform="translate(1121.968 36.819)" fill="#dd6b99"/>
      <rect id="Rectangle_3441" data-name="Rectangle 3441" width="15.712" height="11.242" transform="translate(1113.144 25.577)" fill="#dd6b99"/>
      <rect id="Rectangle_3442" data-name="Rectangle 3442" width="15.712" height="11.242" transform="translate(1103.997 36.819)" fill="#dd6b99"/>
      <rect id="Rectangle_3443" data-name="Rectangle 3443" width="154.347" height="5.073" transform="translate(1080.429 85.082)" fill="#c25484"/>
      <rect id="Rectangle_3444" data-name="Rectangle 3444" width="154.347" height="5.073" transform="translate(1080.429 20.504)" fill="#c25484"/>
      <rect id="Rectangle_3445" data-name="Rectangle 3445" width="154.347" height="3.526" transform="translate(1080.429 81.786)" fill="#e289b1"/>
      <rect id="Rectangle_3446" data-name="Rectangle 3446" width="154.347" height="3.526" transform="translate(1080.429 16.978)" fill="#e289b1"/>
      <rect id="Rectangle_3447" data-name="Rectangle 3447" width="15.712" height="11.242" transform="translate(1056.861 68.228)" fill="#dd6b99"/>
      <rect id="Rectangle_3448" data-name="Rectangle 3448" width="15.712" height="11.242" transform="translate(1064.717 79.47)" fill="#dd6b99"/>
      <rect id="Rectangle_3449" data-name="Rectangle 3449" width="15.712" height="11.242" transform="translate(999.609 79.47)" fill="#dd6b99"/>
      <rect id="Rectangle_3450" data-name="Rectangle 3450" width="15.712" height="11.242" transform="translate(1007.465 68.228)" fill="#dd6b99"/>
      <rect id="Rectangle_3451" data-name="Rectangle 3451" width="15.712" height="11.242" transform="translate(1049.005 56.987)" fill="#dd6b99"/>
      <rect id="Rectangle_3452" data-name="Rectangle 3452" width="15.712" height="11.242" transform="translate(1015.321 56.987)" fill="#dd6b99"/>
      <rect id="Rectangle_3453" data-name="Rectangle 3453" width="15.712" height="11.242" transform="translate(1041.149 45.745)" fill="#dd6b99"/>
      <rect id="Rectangle_3454" data-name="Rectangle 3454" width="15.712" height="11.242" transform="translate(1032.324 34.503)" fill="#dd6b99"/>
      <rect id="Rectangle_3455" data-name="Rectangle 3455" width="15.712" height="11.242" transform="translate(1023.177 45.745)" fill="#dd6b99"/>
      <rect id="Rectangle_3456" data-name="Rectangle 3456" width="15.712" height="11.242" transform="translate(983.333 68.228)" fill="#dd6b99"/>
      <rect id="Rectangle_3457" data-name="Rectangle 3457" width="15.712" height="11.242" transform="translate(991.189 79.47)" fill="#dd6b99"/>
      <rect id="Rectangle_3458" data-name="Rectangle 3458" width="15.712" height="11.242" transform="translate(926.082 79.47)" fill="#dd6b99"/>
      <rect id="Rectangle_3459" data-name="Rectangle 3459" width="15.712" height="11.242" transform="translate(933.938 68.228)" fill="#dd6b99"/>
      <rect id="Rectangle_3460" data-name="Rectangle 3460" width="15.712" height="11.242" transform="translate(975.477 56.987)" fill="#dd6b99"/>
      <rect id="Rectangle_3461" data-name="Rectangle 3461" width="15.712" height="11.242" transform="translate(941.794 56.987)" fill="#dd6b99"/>
      <rect id="Rectangle_3462" data-name="Rectangle 3462" width="15.712" height="11.242" transform="translate(967.621 45.745)" fill="#dd6b99"/>
      <rect id="Rectangle_3463" data-name="Rectangle 3463" width="15.712" height="11.242" transform="translate(958.797 34.503)" fill="#dd6b99"/>
      <rect id="Rectangle_3464" data-name="Rectangle 3464" width="15.712" height="11.242" transform="translate(949.65 45.745)" fill="#dd6b99"/>
      <rect id="Rectangle_3465" data-name="Rectangle 3465" width="154.347" height="5.073" transform="translate(926.082 94.007)" fill="#c25484"/>
      <rect id="Rectangle_3466" data-name="Rectangle 3466" width="154.347" height="5.073" transform="translate(926.082 29.43)" fill="#c25484"/>
      <rect id="Rectangle_3467" data-name="Rectangle 3467" width="154.347" height="3.526" transform="translate(926.082 90.712)" fill="#e289b1"/>
      <rect id="Rectangle_3468" data-name="Rectangle 3468" width="154.347" height="3.526" transform="translate(926.082 25.904)" fill="#e289b1"/>
      <rect id="Rectangle_3469" data-name="Rectangle 3469" width="15.712" height="11.242" transform="translate(902.514 76.828)" fill="#dd6b99"/>
      <rect id="Rectangle_3470" data-name="Rectangle 3470" width="15.712" height="11.242" transform="translate(910.37 88.07)" fill="#dd6b99"/>
      <rect id="Rectangle_3471" data-name="Rectangle 3471" width="15.712" height="11.242" transform="translate(845.262 88.07)" fill="#dd6b99"/>
      <rect id="Rectangle_3472" data-name="Rectangle 3472" width="15.712" height="11.242" transform="translate(853.118 76.828)" fill="#dd6b99"/>
      <rect id="Rectangle_3473" data-name="Rectangle 3473" width="15.712" height="11.242" transform="translate(894.658 65.586)" fill="#dd6b99"/>
      <rect id="Rectangle_3474" data-name="Rectangle 3474" width="15.712" height="11.242" transform="translate(860.974 65.586)" fill="#dd6b99"/>
      <rect id="Rectangle_3475" data-name="Rectangle 3475" width="15.712" height="11.242" transform="translate(886.802 54.344)" fill="#dd6b99"/>
      <rect id="Rectangle_3476" data-name="Rectangle 3476" width="15.712" height="11.242" transform="translate(877.977 43.102)" fill="#dd6b99"/>
      <rect id="Rectangle_3477" data-name="Rectangle 3477" width="15.712" height="11.242" transform="translate(868.83 54.344)" fill="#dd6b99"/>
      <rect id="Rectangle_3478" data-name="Rectangle 3478" width="15.712" height="11.242" transform="translate(828.986 76.828)" fill="#dd6b99"/>
      <rect id="Rectangle_3479" data-name="Rectangle 3479" width="15.712" height="11.242" transform="translate(836.842 88.07)" fill="#dd6b99"/>
      <rect id="Rectangle_3480" data-name="Rectangle 3480" width="15.712" height="11.242" transform="translate(771.735 88.07)" fill="#dd6b99"/>
      <rect id="Rectangle_3481" data-name="Rectangle 3481" width="15.712" height="11.242" transform="translate(779.591 76.828)" fill="#dd6b99"/>
      <rect id="Rectangle_3482" data-name="Rectangle 3482" width="15.712" height="11.242" transform="translate(821.13 65.586)" fill="#dd6b99"/>
      <rect id="Rectangle_3483" data-name="Rectangle 3483" width="15.712" height="11.242" transform="translate(787.447 65.586)" fill="#dd6b99"/>
      <rect id="Rectangle_3484" data-name="Rectangle 3484" width="15.712" height="11.242" transform="translate(813.274 54.344)" fill="#dd6b99"/>
      <rect id="Rectangle_3485" data-name="Rectangle 3485" width="15.712" height="11.242" transform="translate(804.45 43.102)" fill="#dd6b99"/>
      <rect id="Rectangle_3486" data-name="Rectangle 3486" width="15.712" height="11.242" transform="translate(795.303 54.344)" fill="#dd6b99"/>
      <rect id="Rectangle_3487" data-name="Rectangle 3487" width="154.347" height="5.073" transform="translate(771.735 102.607)" fill="#c25484"/>
      <rect id="Rectangle_3488" data-name="Rectangle 3488" width="154.347" height="5.073" transform="translate(771.735 38.029)" fill="#c25484"/>
      <rect id="Rectangle_3489" data-name="Rectangle 3489" width="154.347" height="3.526" transform="translate(771.735 99.311)" fill="#e289b1"/>
      <rect id="Rectangle_3490" data-name="Rectangle 3490" width="154.347" height="3.526" transform="translate(771.735 34.503)" fill="#e289b1"/>
      <rect id="Rectangle_3491" data-name="Rectangle 3491" width="15.712" height="11.242" transform="translate(748.167 85.206)" fill="#dd6b99"/>
      <rect id="Rectangle_3492" data-name="Rectangle 3492" width="15.712" height="11.242" transform="translate(756.023 96.448)" fill="#dd6b99"/>
      <rect id="Rectangle_3493" data-name="Rectangle 3493" width="15.712" height="11.242" transform="translate(690.915 96.448)" fill="#dd6b99"/>
      <rect id="Rectangle_3494" data-name="Rectangle 3494" width="15.712" height="11.242" transform="translate(698.771 85.206)" fill="#dd6b99"/>
      <rect id="Rectangle_3495" data-name="Rectangle 3495" width="15.712" height="11.242" transform="translate(740.311 73.965)" fill="#dd6b99"/>
      <rect id="Rectangle_3496" data-name="Rectangle 3496" width="15.712" height="11.242" transform="translate(706.627 73.965)" fill="#dd6b99"/>
      <rect id="Rectangle_3497" data-name="Rectangle 3497" width="15.712" height="11.242" transform="translate(732.455 62.723)" fill="#dd6b99"/>
      <rect id="Rectangle_3498" data-name="Rectangle 3498" width="15.712" height="11.242" transform="translate(723.63 51.481)" fill="#dd6b99"/>
      <rect id="Rectangle_3499" data-name="Rectangle 3499" width="15.712" height="11.242" transform="translate(714.483 62.723)" fill="#dd6b99"/>
      <rect id="Rectangle_3500" data-name="Rectangle 3500" width="15.712" height="11.242" transform="translate(674.639 85.206)" fill="#dd6b99"/>
      <rect id="Rectangle_3501" data-name="Rectangle 3501" width="15.712" height="11.242" transform="translate(682.495 96.448)" fill="#dd6b99"/>
      <rect id="Rectangle_3502" data-name="Rectangle 3502" width="15.712" height="11.242" transform="translate(617.388 96.448)" fill="#dd6b99"/>
      <rect id="Rectangle_3503" data-name="Rectangle 3503" width="15.712" height="11.242" transform="translate(625.244 85.206)" fill="#dd6b99"/>
      <rect id="Rectangle_3504" data-name="Rectangle 3504" width="15.712" height="11.242" transform="translate(666.784 73.965)" fill="#dd6b99"/>
      <rect id="Rectangle_3505" data-name="Rectangle 3505" width="15.712" height="11.242" transform="translate(633.1 73.965)" fill="#dd6b99"/>
      <rect id="Rectangle_3506" data-name="Rectangle 3506" width="15.712" height="11.242" transform="translate(658.928 62.723)" fill="#dd6b99"/>
      <rect id="Rectangle_3507" data-name="Rectangle 3507" width="15.712" height="11.242" transform="translate(650.103 51.481)" fill="#dd6b99"/>
      <rect id="Rectangle_3508" data-name="Rectangle 3508" width="15.712" height="11.242" transform="translate(640.956 62.723)" fill="#dd6b99"/>
      <rect id="Rectangle_3509" data-name="Rectangle 3509" width="154.347" height="5.073" transform="translate(617.388 110.985)" fill="#c25484"/>
      <rect id="Rectangle_3510" data-name="Rectangle 3510" width="154.347" height="5.073" transform="translate(617.388 46.408)" fill="#c25484"/>
      <rect id="Rectangle_3511" data-name="Rectangle 3511" width="154.347" height="3.526" transform="translate(617.388 107.69)" fill="#e289b1"/>
      <rect id="Rectangle_3512" data-name="Rectangle 3512" width="154.347" height="3.526" transform="translate(617.388 42.882)" fill="#e289b1"/>
      <rect id="Rectangle_3513" data-name="Rectangle 3513" width="15.712" height="11.242" transform="translate(593.82 93.748)" fill="#dd6b99"/>
      <rect id="Rectangle_3514" data-name="Rectangle 3514" width="15.712" height="11.242" transform="translate(601.676 104.99)" fill="#dd6b99"/>
      <rect id="Rectangle_3515" data-name="Rectangle 3515" width="15.712" height="11.242" transform="translate(536.568 104.99)" fill="#dd6b99"/>
      <rect id="Rectangle_3516" data-name="Rectangle 3516" width="15.712" height="11.242" transform="translate(544.424 93.748)" fill="#dd6b99"/>
      <rect id="Rectangle_3517" data-name="Rectangle 3517" width="15.712" height="11.242" transform="translate(585.964 82.507)" fill="#dd6b99"/>
      <rect id="Rectangle_3518" data-name="Rectangle 3518" width="15.712" height="11.242" transform="translate(552.28 82.507)" fill="#dd6b99"/>
      <rect id="Rectangle_3519" data-name="Rectangle 3519" width="15.712" height="11.242" transform="translate(578.108 71.265)" fill="#dd6b99"/>
      <rect id="Rectangle_3520" data-name="Rectangle 3520" width="15.712" height="11.242" transform="translate(569.284 60.023)" fill="#dd6b99"/>
      <rect id="Rectangle_3521" data-name="Rectangle 3521" width="15.712" height="11.242" transform="translate(560.136 71.265)" fill="#dd6b99"/>
      <rect id="Rectangle_3522" data-name="Rectangle 3522" width="15.712" height="11.242" transform="translate(520.292 93.748)" fill="#dd6b99"/>
      <rect id="Rectangle_3523" data-name="Rectangle 3523" width="15.712" height="11.242" transform="translate(528.148 104.99)" fill="#dd6b99"/>
      <rect id="Rectangle_3524" data-name="Rectangle 3524" width="15.712" height="11.242" transform="translate(463.041 104.99)" fill="#dd6b99"/>
      <rect id="Rectangle_3525" data-name="Rectangle 3525" width="15.712" height="11.242" transform="translate(470.897 93.748)" fill="#dd6b99"/>
      <rect id="Rectangle_3526" data-name="Rectangle 3526" width="15.712" height="11.242" transform="translate(512.437 82.507)" fill="#dd6b99"/>
      <rect id="Rectangle_3527" data-name="Rectangle 3527" width="15.712" height="11.242" transform="translate(478.753 82.507)" fill="#dd6b99"/>
      <rect id="Rectangle_3528" data-name="Rectangle 3528" width="15.712" height="11.242" transform="translate(504.581 71.265)" fill="#dd6b99"/>
      <rect id="Rectangle_3529" data-name="Rectangle 3529" width="15.712" height="11.242" transform="translate(495.756 60.023)" fill="#dd6b99"/>
      <rect id="Rectangle_3530" data-name="Rectangle 3530" width="15.712" height="11.242" transform="translate(486.609 71.265)" fill="#dd6b99"/>
      <rect id="Rectangle_3531" data-name="Rectangle 3531" width="154.347" height="5.073" transform="translate(463.041 119.527)" fill="#c25484"/>
      <rect id="Rectangle_3532" data-name="Rectangle 3532" width="154.347" height="5.073" transform="translate(463.041 54.95)" fill="#c25484"/>
      <rect id="Rectangle_3533" data-name="Rectangle 3533" width="154.347" height="3.526" transform="translate(463.041 116.232)" fill="#e289b1"/>
      <rect id="Rectangle_3534" data-name="Rectangle 3534" width="154.347" height="3.526" transform="translate(463.041 51.424)" fill="#e289b1"/>
      <rect id="Rectangle_3535" data-name="Rectangle 3535" width="15.712" height="11.242" transform="translate(439.473 102.348)" fill="#dd6b99"/>
      <rect id="Rectangle_3536" data-name="Rectangle 3536" width="15.712" height="11.242" transform="translate(447.329 113.589)" fill="#dd6b99"/>
      <rect id="Rectangle_3537" data-name="Rectangle 3537" width="15.712" height="11.242" transform="translate(382.221 113.589)" fill="#dd6b99"/>
      <rect id="Rectangle_3538" data-name="Rectangle 3538" width="15.712" height="11.242" transform="translate(390.077 102.348)" fill="#dd6b99"/>
      <rect id="Rectangle_3539" data-name="Rectangle 3539" width="15.712" height="11.242" transform="translate(431.617 91.106)" fill="#dd6b99"/>
      <rect id="Rectangle_3540" data-name="Rectangle 3540" width="15.712" height="11.242" transform="translate(397.933 91.106)" fill="#dd6b99"/>
      <rect id="Rectangle_3541" data-name="Rectangle 3541" width="15.712" height="11.242" transform="translate(423.761 79.864)" fill="#dd6b99"/>
      <rect id="Rectangle_3542" data-name="Rectangle 3542" width="15.712" height="11.242" transform="translate(414.937 68.622)" fill="#dd6b99"/>
      <rect id="Rectangle_3543" data-name="Rectangle 3543" width="15.712" height="11.242" transform="translate(405.789 79.864)" fill="#dd6b99"/>
      <rect id="Rectangle_3544" data-name="Rectangle 3544" width="15.712" height="11.242" transform="translate(365.946 102.348)" fill="#dd6b99"/>
      <rect id="Rectangle_3545" data-name="Rectangle 3545" width="15.712" height="11.242" transform="translate(373.802 113.589)" fill="#dd6b99"/>
      <rect id="Rectangle_3546" data-name="Rectangle 3546" width="15.712" height="11.242" transform="translate(308.694 113.589)" fill="#dd6b99"/>
      <rect id="Rectangle_3547" data-name="Rectangle 3547" width="15.712" height="11.242" transform="translate(316.55 102.348)" fill="#dd6b99"/>
      <rect id="Rectangle_3548" data-name="Rectangle 3548" width="15.712" height="11.242" transform="translate(358.09 91.106)" fill="#dd6b99"/>
      <rect id="Rectangle_3549" data-name="Rectangle 3549" width="15.712" height="11.242" transform="translate(324.406 91.106)" fill="#dd6b99"/>
      <rect id="Rectangle_3550" data-name="Rectangle 3550" width="15.712" height="11.242" transform="translate(350.234 79.864)" fill="#dd6b99"/>
      <rect id="Rectangle_3551" data-name="Rectangle 3551" width="15.712" height="11.242" transform="translate(341.409 68.622)" fill="#dd6b99"/>
      <rect id="Rectangle_3552" data-name="Rectangle 3552" width="15.712" height="11.242" transform="translate(332.262 79.864)" fill="#dd6b99"/>
      <rect id="Rectangle_3553" data-name="Rectangle 3553" width="154.347" height="5.073" transform="translate(308.694 128.127)" fill="#c25484"/>
      <rect id="Rectangle_3554" data-name="Rectangle 3554" width="154.347" height="5.073" transform="translate(308.694 63.549)" fill="#c25484"/>
      <rect id="Rectangle_3555" data-name="Rectangle 3555" width="154.347" height="3.526" transform="translate(308.694 124.831)" fill="#e289b1"/>
      <rect id="Rectangle_3556" data-name="Rectangle 3556" width="154.347" height="3.526" transform="translate(308.694 60.023)" fill="#e289b1"/>
      <rect id="Rectangle_3557" data-name="Rectangle 3557" width="15.712" height="11.242" transform="translate(285.126 110.726)" fill="#dd6b99"/>
      <rect id="Rectangle_3558" data-name="Rectangle 3558" width="15.712" height="11.242" transform="translate(292.982 121.968)" fill="#dd6b99"/>
      <rect id="Rectangle_3559" data-name="Rectangle 3559" width="15.712" height="11.242" transform="translate(227.875 121.968)" fill="#dd6b99"/>
      <rect id="Rectangle_3560" data-name="Rectangle 3560" width="15.712" height="11.242" transform="translate(235.731 110.726)" fill="#dd6b99"/>
      <rect id="Rectangle_3561" data-name="Rectangle 3561" width="15.712" height="11.242" transform="translate(277.27 99.485)" fill="#dd6b99"/>
      <rect id="Rectangle_3562" data-name="Rectangle 3562" width="15.712" height="11.242" transform="translate(243.586 99.485)" fill="#dd6b99"/>
      <rect id="Rectangle_3563" data-name="Rectangle 3563" width="15.712" height="11.242" transform="translate(269.414 88.243)" fill="#dd6b99"/>
      <rect id="Rectangle_3564" data-name="Rectangle 3564" width="15.712" height="11.242" transform="translate(260.59 77.001)" fill="#dd6b99"/>
      <rect id="Rectangle_3565" data-name="Rectangle 3565" width="15.712" height="11.242" transform="translate(251.442 88.243)" fill="#dd6b99"/>
      <rect id="Rectangle_3566" data-name="Rectangle 3566" width="15.712" height="11.242" transform="translate(211.599 110.726)" fill="#dd6b99"/>
      <rect id="Rectangle_3567" data-name="Rectangle 3567" width="15.712" height="11.242" transform="translate(219.455 121.968)" fill="#dd6b99"/>
      <rect id="Rectangle_3568" data-name="Rectangle 3568" width="15.712" height="11.242" transform="translate(154.347 121.968)" fill="#dd6b99"/>
      <rect id="Rectangle_3569" data-name="Rectangle 3569" width="15.712" height="11.242" transform="translate(162.203 110.726)" fill="#dd6b99"/>
      <rect id="Rectangle_3570" data-name="Rectangle 3570" width="15.712" height="11.242" transform="translate(203.743 99.485)" fill="#dd6b99"/>
      <rect id="Rectangle_3571" data-name="Rectangle 3571" width="15.712" height="11.242" transform="translate(170.059 99.485)" fill="#dd6b99"/>
      <rect id="Rectangle_3572" data-name="Rectangle 3572" width="15.712" height="11.242" transform="translate(195.887 88.243)" fill="#dd6b99"/>
      <rect id="Rectangle_3573" data-name="Rectangle 3573" width="15.712" height="11.242" transform="translate(187.062 77.001)" fill="#dd6b99"/>
      <rect id="Rectangle_3574" data-name="Rectangle 3574" width="15.712" height="11.242" transform="translate(177.915 88.243)" fill="#dd6b99"/>
      <rect id="Rectangle_3575" data-name="Rectangle 3575" width="154.347" height="5.073" transform="translate(154.347 136.505)" fill="#c25484"/>
      <rect id="Rectangle_3576" data-name="Rectangle 3576" width="154.347" height="5.073" transform="translate(154.347 71.928)" fill="#c25484"/>
      <rect id="Rectangle_3577" data-name="Rectangle 3577" width="154.347" height="3.526" transform="translate(154.347 133.21)" fill="#e289b1"/>
      <rect id="Rectangle_3578" data-name="Rectangle 3578" width="154.347" height="3.526" transform="translate(154.347 68.402)" fill="#e289b1"/>
      <rect id="Rectangle_3579" data-name="Rectangle 3579" width="15.712" height="11.242" transform="translate(130.779 119.652)" fill="#dd6b99"/>
      <rect id="Rectangle_3580" data-name="Rectangle 3580" width="15.712" height="11.242" transform="translate(138.635 130.894)" fill="#dd6b99"/>
      <rect id="Rectangle_3581" data-name="Rectangle 3581" width="15.712" height="11.242" transform="translate(73.528 130.894)" fill="#dd6b99"/>
      <rect id="Rectangle_3582" data-name="Rectangle 3582" width="15.712" height="11.242" transform="translate(81.383 119.652)" fill="#dd6b99"/>
      <rect id="Rectangle_3583" data-name="Rectangle 3583" width="15.712" height="11.242" transform="translate(122.923 108.41)" fill="#dd6b99"/>
      <rect id="Rectangle_3584" data-name="Rectangle 3584" width="15.712" height="11.242" transform="translate(89.239 108.41)" fill="#dd6b99"/>
      <rect id="Rectangle_3585" data-name="Rectangle 3585" width="15.712" height="11.242" transform="translate(115.067 97.168)" fill="#dd6b99"/>
      <rect id="Rectangle_3586" data-name="Rectangle 3586" width="15.712" height="11.242" transform="translate(106.243 85.927)" fill="#dd6b99"/>
      <rect id="Rectangle_3587" data-name="Rectangle 3587" width="15.712" height="11.242" transform="translate(97.095 97.168)" fill="#dd6b99"/>
      <rect id="Rectangle_3588" data-name="Rectangle 3588" width="15.712" height="11.242" transform="translate(57.252 119.652)" fill="#dd6b99"/>
      <rect id="Rectangle_3589" data-name="Rectangle 3589" width="15.712" height="11.242" transform="translate(65.108 130.894)" fill="#dd6b99"/>
      <rect id="Rectangle_3590" data-name="Rectangle 3590" width="15.712" height="11.242" transform="translate(0 130.894)" fill="#dd6b99"/>
      <rect id="Rectangle_3591" data-name="Rectangle 3591" width="15.712" height="11.242" transform="translate(7.856 119.652)" fill="#dd6b99"/>
      <rect id="Rectangle_3592" data-name="Rectangle 3592" width="15.712" height="11.242" transform="translate(49.396 108.41)" fill="#dd6b99"/>
      <rect id="Rectangle_3593" data-name="Rectangle 3593" width="15.712" height="11.242" transform="translate(15.712 108.41)" fill="#dd6b99"/>
      <rect id="Rectangle_3594" data-name="Rectangle 3594" width="15.712" height="11.242" transform="translate(41.54 97.168)" fill="#dd6b99"/>
      <rect id="Rectangle_3595" data-name="Rectangle 3595" width="15.712" height="11.242" transform="translate(32.715 85.927)" fill="#dd6b99"/>
      <rect id="Rectangle_3596" data-name="Rectangle 3596" width="15.712" height="11.242" transform="translate(23.568 97.168)" fill="#dd6b99"/>
      <rect id="Rectangle_3597" data-name="Rectangle 3597" width="154.347" height="5.073" transform="translate(0 145.431)" fill="#c25484"/>
      <rect id="Rectangle_3598" data-name="Rectangle 3598" width="154.347" height="5.073" transform="translate(0 80.853)" fill="#c25484"/>
      <rect id="Rectangle_3599" data-name="Rectangle 3599" width="154.347" height="3.526" transform="translate(0 142.136)" fill="#e289b1"/>
      <rect id="Rectangle_3600" data-name="Rectangle 3600" width="154.347" height="3.526" transform="translate(0 77.327)" fill="#e289b1"/>
    </g>
  </g>
</svg>
