<svg id="Group_838" data-name="Group 838" xmlns="http://www.w3.org/2000/svg" width="389.001" height="240.186" viewBox="0 0 389.001 240.186">
  <rect id="Rectangle_188" data-name="Rectangle 188" width="389.001" height="240.186" fill="#fff"/>
  <path id="Path_2702" data-name="Path 2702" d="M225.545,57.068H346.531c16.017,0,20.993,11.751,20.993,20.055V205.909c0,7.99-4.976,20.054-20.993,20.054H104.559c-15.861,0-20.993-12.064-20.993-20.054V77.123c0-8.3,5.132-20.055,20.993-20.055Z" transform="translate(-31.024 -21.186)" fill="#fff" stroke="#0078be" stroke-miterlimit="2.613" stroke-width="4.951" fill-rule="evenodd"/>
  <path id="Path_2703" data-name="Path 2703" d="M181.3,197.174h44.164L250.191,170.7h44.32l-37.633,41.989H117.7V184.64h74.644L181.3,197.174Z" transform="translate(-43.695 -63.371)" fill="#0078be" fill-rule="evenodd"/>
  <path id="Path_2704" data-name="Path 2704" d="M331.882,161.63h-44.32l-24.726,26.635H218.36l37.633-41.989H395.329v27.888H320.685l11.2-12.534Z" transform="translate(-81.066 -54.305)" fill="#ffe236" fill-rule="evenodd"/>
  <path id="Path_2705" data-name="Path 2705" d="M459.167,115.953a13.95,13.95,0,0,1-7.153,1.879c-7.153,0-13.529-5.326-13.529-12.69s5.754-12.691,13.062-12.691a15.2,15.2,0,0,1,7.62,1.723v7.834c-1.555-1.41-3.888-1.88-6.531-1.88a5.482,5.482,0,0,0-5.442,5.327c0,2.821,2.954,4.544,5.442,4.544,2.8,0,4.51-.157,6.531-1.723v7.677Z" transform="translate(-162.787 -34.323)" fill="#0078be" fill-rule="evenodd"/>
  <path id="Path_2706" data-name="Path 2706" d="M490.4,104.171v5.954c-6.376,4.7-13.684.783-13.684-4.7V94.458H473.6V87.25h3.111v-5.8l8.708-4.7v10.5H490.4v6.58h-4.51v10.184c0,1.881,3.11,1.723,4.51.157Z" transform="translate(-175.825 -28.494)" fill="#0078be" fill-rule="evenodd"/>
  <path id="Path_2707" data-name="Path 2707" d="M399.219,101.121l1.4-6.738c8.708-2.977,21.149-1.254,21.149,6.58v16.608h-8.087l-.311-.783c-3.732,2.35-17.417,3.447-15.551-7.363,1.088-6.424,8.4-7.99,12.908-7.99,2.333,0,3.265-2.194.311-2.35-2.643-.158-7.931.156-11.819,2.037Z" transform="translate(-147.626 -34.53)" fill="#0078be" fill-rule="evenodd"/>
  <path id="Path_2708" data-name="Path 2708" d="M165.617,101.121l1.244-6.738c8.709-2.977,21.149-1.254,21.149,6.58v16.608h-8.242l-.155-.783c-3.577,2.35-17.728,3.447-15.551-7.363,1.089-6.424,8.242-7.99,12.752-7.99,2.333,0,3.266-2.194.467-2.35-2.644-.158-8.087.156-11.663,2.037Z" transform="translate(-60.824 -34.53)" fill="#0078be" fill-rule="evenodd"/>
  <path id="Path_2709" data-name="Path 2709" d="M309.323,105.363c0,7.363-6.066,12.534-13.374,12.534s-13.529-5.483-13.529-12.847c0-7.207,6.22-12.847,13.374-12.847a13.194,13.194,0,0,1,13.53,13.16Z" transform="translate(-104.848 -34.23)" fill="#0078be" fill-rule="evenodd"/>
  <path id="Path_2710" data-name="Path 2710" d="M385.532,104.171v5.954c-6.531,4.7-13.685.783-13.685-4.7V94.458h-3.11V87.25h3.11v-5.8l8.864-4.7v10.5h4.821v6.58h-4.665v10.184c0,1.881,3.265,1.723,4.665.157Z" transform="translate(-136.894 -28.494)" fill="#0078be" fill-rule="evenodd"/>
  <path id="Path_2711" data-name="Path 2711" d="M134.118,74.013c8.086,0,14,10.81,6.532,17.547,9.33,5.8,5.131,18.644-5.288,18.8H117.945V74.013Z" transform="translate(-43.787 -27.477)" fill="#0078be" fill-rule="evenodd"/>
  <path id="Path_2712" data-name="Path 2712" d="M267.825,115.953a13.009,13.009,0,0,1-7,1.879c-7.309,0-13.529-5.326-13.529-12.69a12.564,12.564,0,0,1,12.908-12.691,15.2,15.2,0,0,1,7.62,1.723v7.834c-1.711-1.41-3.733-1.88-6.376-1.88a5.517,5.517,0,0,0-5.6,5.327c0,2.821,3.11,4.544,5.6,4.544,2.643,0,4.354-.157,6.376-1.723v7.677Z" transform="translate(-91.809 -34.323)" fill="#0078be" fill-rule="evenodd"/>
  <path id="Path_2713" data-name="Path 2713" d="M230.161,101.733v15.824h-8.708V103.927c0-4.856-7-4.7-7,0v13.631h-8.708V93.273h8.864V95.31c7.309-5.484,15.55-.47,15.55,6.423Z" transform="translate(-76.384 -34.517)" fill="#0078be" fill-rule="evenodd"/>
  <path id="Path_2714" data-name="Path 2714" d="M352.341,101.733v15.824h-8.708V103.927c0-4.856-7-4.7-7,0v13.631h-8.709V93.273h8.709V95.31c7.465-5.484,15.706-.47,15.706,6.423Z" transform="translate(-121.743 -34.517)" fill="#0078be" fill-rule="evenodd"/>
  <path id="Path_2715" data-name="Path 2715" d="M411.038,99.084c2.955.156,2.023,2.35-.311,2.35-4.51,0-11.819,1.566-12.908,7.99-1.866,10.811,11.819,9.714,15.551,7.363l.311.783h8.087V100.963c0-7.834-12.441-9.556-21.149-6.58l-1.4,6.738c3.888-1.881,9.175-2.194,11.819-2.037Z" transform="translate(-147.626 -34.53)" fill="#0078be" fill-rule="evenodd"/>
  <path id="Path_2716" data-name="Path 2716" d="M177.28,99.084c2.8.156,1.866,2.35-.467,2.35-4.51,0-11.663,1.566-12.752,7.99-2.177,10.811,11.975,9.714,15.551,7.363l.155.783h8.242V100.963c0-7.834-12.44-9.556-21.149-6.58l-1.244,6.738c3.576-1.881,9.019-2.194,11.663-2.037Z" transform="translate(-60.824 -34.53)" fill="#0078be" fill-rule="evenodd"/>
  <path id="Path_2717" data-name="Path 2717" d="M295.793,92.2c-7.153,0-13.374,5.64-13.374,12.847,0,7.364,6.22,12.847,13.529,12.847s13.374-5.171,13.374-12.534a13.194,13.194,0,0,0-13.53-13.16Z" transform="translate(-104.848 -34.23)" fill="#0078be" fill-rule="evenodd"/>
  <path id="Path_2718" data-name="Path 2718" d="M380.867,104.014V93.83h4.665V87.25h-4.821v-10.5l-8.864,4.7v5.8h-3.11v7.208h3.11v10.966c0,5.483,7.153,9.4,13.685,4.7v-5.954c-1.4,1.566-4.665,1.723-4.665-.157Z" transform="translate(-136.894 -28.494)" fill="#0078be" fill-rule="evenodd"/>
  <path id="Path_2719" data-name="Path 2719" d="M117.945,74.013v36.348h17.416c10.42-.157,14.618-13,5.288-18.8,7.464-6.737,1.554-17.547-6.532-17.547Z" transform="translate(-43.787 -27.477)" fill="#0078be" fill-rule="evenodd"/>
  <path id="Path_2720" data-name="Path 2720" d="M267.825,108.276c-2.022,1.566-3.733,1.723-6.376,1.723-2.488,0-5.6-1.723-5.6-4.544a5.517,5.517,0,0,1,5.6-5.327c2.643,0,4.665.47,6.376,1.88V94.175a15.2,15.2,0,0,0-7.62-1.723A12.564,12.564,0,0,0,247.3,105.143c0,7.364,6.22,12.69,13.529,12.69a13.009,13.009,0,0,0,7-1.879v-7.677Z" transform="translate(-91.809 -34.323)" fill="#0078be" fill-rule="evenodd"/>
  <path id="Path_2721" data-name="Path 2721" d="M214.611,95.31V93.273h-8.864v24.284h8.708V103.927c0-4.7,7-4.856,7,0v13.631h8.708V101.733c0-6.894-8.242-11.907-15.55-6.423Z" transform="translate(-76.384 -34.517)" fill="#0078be" fill-rule="evenodd"/>
  <path id="Path_2722" data-name="Path 2722" d="M336.636,95.31V93.273h-8.709v24.284h8.709V103.927c0-4.7,7-4.856,7,0v13.631h8.708V101.733c0-6.894-8.241-11.907-15.706-6.423Z" transform="translate(-121.743 -34.517)" fill="#0078be" fill-rule="evenodd"/>
  <path id="Path_2723" data-name="Path 2723" d="M459.167,108.276c-2.021,1.566-3.732,1.723-6.531,1.723-2.489,0-5.442-1.723-5.442-4.544a5.482,5.482,0,0,1,5.442-5.327c2.644,0,4.977.47,6.531,1.88V94.175a15.2,15.2,0,0,0-7.62-1.723c-7.309,0-13.062,5.327-13.062,12.691s6.376,12.69,13.529,12.69a13.95,13.95,0,0,0,7.153-1.879v-7.677Z" transform="translate(-162.787 -34.323)" fill="#0078be" fill-rule="evenodd"/>
  <path id="Path_2724" data-name="Path 2724" d="M485.889,104.014V93.83h4.51V87.25h-4.976v-10.5l-8.708,4.7v5.8H473.6v7.208h3.111v10.966c0,5.483,7.308,9.4,13.684,4.7v-5.954c-1.4,1.566-4.51,1.723-4.51-.157Z" transform="translate(-175.825 -28.494)" fill="#0078be" fill-rule="evenodd"/>
  <path id="Path_2725" data-name="Path 2725" d="M306.066,110.082a5,5,0,0,1-4.976,4.857,4.941,4.941,0,0,1-4.821-5.17,4.583,4.583,0,0,1,4.821-4.856,4.788,4.788,0,0,1,4.976,5.169Z" transform="translate(-109.99 -38.949)" fill="#0078be" fill-rule="evenodd"/>
  <path id="Path_2726" data-name="Path 2726" d="M133.774,108.649h3.888c4.82,0,5.287,7.364.155,7.364h-4.043v-7.364Z" transform="translate(-49.664 -40.336)" fill="#0078be" fill-rule="evenodd"/>
  <path id="Path_2727" data-name="Path 2727" d="M184.576,115.094v2.977c0,3.29-6.531,4.23-6.531.783,0-3.134,4.666-4.074,6.531-3.76Z" transform="translate(-66.099 -42.707)" fill="#0078be" fill-rule="evenodd"/>
  <path id="Path_2728" data-name="Path 2728" d="M418.4,115.094v2.977c0,3.29-6.377,4.23-6.377.783,0-3.134,4.665-4.074,6.377-3.76Z" transform="translate(-152.962 -42.707)" fill="#0078be" fill-rule="evenodd"/>
  <path id="Path_2729" data-name="Path 2729" d="M137.662,85.617c4.509,2.037,2.954,6.894.155,6.894h-4.043V85.617a10.352,10.352,0,0,1,3.888,0Z" transform="translate(-49.664 -31.718)" fill="#0078be" fill-rule="evenodd"/>
  <path id="Path_2730" data-name="Path 2730" d="M301.09,104.913a4.583,4.583,0,0,0-4.821,4.856,4.941,4.941,0,0,0,4.821,5.17,5,5,0,0,0,4.976-4.857,4.788,4.788,0,0,0-4.976-5.169Z" transform="translate(-109.99 -38.949)" fill="#fff" fill-rule="evenodd"/>
  <path id="Path_2731" data-name="Path 2731" d="M412.02,118.854c0,3.446,6.377,2.507,6.377-.783v-2.977c-1.712-.314-6.377.626-6.377,3.76Z" transform="translate(-152.962 -42.707)" fill="#fff" fill-rule="evenodd"/>
  <path id="Path_2732" data-name="Path 2732" d="M133.774,85.617v6.894h4.043c2.8,0,4.355-4.856-.155-6.894a10.352,10.352,0,0,0-3.888,0Z" transform="translate(-49.664 -31.718)" fill="#fff" fill-rule="evenodd"/>
  <path id="Path_2733" data-name="Path 2733" d="M178.045,118.854c0,3.446,6.531,2.507,6.531-.783v-2.977c-1.865-.314-6.531.626-6.531,3.76Z" transform="translate(-66.099 -42.707)" fill="#fff" fill-rule="evenodd"/>
  <path id="Path_2734" data-name="Path 2734" d="M133.774,116.013h4.043c5.132,0,4.665-7.364-.155-7.364h-3.888v7.364Z" transform="translate(-49.664 -40.336)" fill="#fff" fill-rule="evenodd"/>
  <path id="Path_2735" data-name="Path 2735" d="M275.148,281.323c0-8.46-3.422-13.944-11.975-13.944-8.086,0-12.907,6.111-12.907,13,0,7.521,5.754,13,13.84,13,7,0,10.575-2.82,10.575-2.82v-7.207a20.025,20.025,0,0,1-8.553,2.507c-4.665,0-7.154-1.253-7.154-4.543Z" transform="translate(-92.911 -99.264)" fill="#0078be" fill-rule="evenodd"/>
  <path id="Path_2736" data-name="Path 2736" d="M134.74,276.563l7.154-10.341v20.525h9.33l.156-35.565h-9.486l-7.154,10.654-7.309-10.654h-9.486l.156,35.565h9.33V266.223l7.309,10.341Z" transform="translate(-43.787 -93.251)" fill="#0078be" fill-rule="evenodd"/>
  <path id="Path_2737" data-name="Path 2737" d="M300.958,278.411a6.222,6.222,0,0,1,5.6-3.761,7.41,7.41,0,0,1,4.043,1.41v-7.676a4.1,4.1,0,0,0-3.266-1.254,9.283,9.283,0,0,0-6.376,2.82v-2.507h-8.4v25.225h8.4V278.411Z" transform="translate(-108.613 -99.172)" fill="#0078be" fill-rule="evenodd"/>
  <path id="Path_2738" data-name="Path 2738" d="M192.144,291.194a24.544,24.544,0,0,0,8.863,1.724c9.02,0,11.663-4.7,11.663-8.617,0-4.544-4.665-7.051-8.864-7.678-.622,0-2.333-.47-2.333-1.254,0-.626.467-1.41,2.489-1.41a17.982,17.982,0,0,1,6.376,1.41l-.311-6.579a28.277,28.277,0,0,0-8.086-1.41c-5.132,0-9.642,3.134-9.642,8.147,0,3.917,2.8,5.954,7.309,6.894,1.866.157,3.577.939,3.577,1.881,0,1.253-1.244,1.566-2.488,1.566a18.89,18.89,0,0,1-8.553-1.566v6.893Z" transform="translate(-71.333 -99.264)" fill="#0078be" fill-rule="evenodd"/>
  <path id="Path_2739" data-name="Path 2739" d="M235.592,279.07V268.73h4.821v-6.737h-5.133V251.182l-8.863,4.7v6.11h-3.11V269.2h3.11V280.48c0,5.641,7.309,9.4,14,4.7v-6.11c-1.4,1.41-4.821,1.724-4.821,0Z" transform="translate(-82.903 -93.251)" fill="#0078be" fill-rule="evenodd"/>
  <path id="Path_2740" data-name="Path 2740" d="M184.161,292.817V268.376H174.83v24.441Z" transform="translate(-64.906 -99.634)" fill="#0078be" fill-rule="evenodd"/>
  <path id="Path_2741" data-name="Path 2741" d="M179.4,261.209a5.2,5.2,0,0,0,5.132-5.17,5.036,5.036,0,0,0-5.132-4.857,4.863,4.863,0,0,0-4.821,4.857,5.04,5.04,0,0,0,4.821,5.17Z" transform="translate(-64.814 -93.251)" fill="#0078be" fill-rule="evenodd"/>
  <path id="Path_2742" data-name="Path 2742" d="M426.118,291.194a24.546,24.546,0,0,0,8.863,1.724c9.02,0,11.819-4.7,11.819-8.617,0-4.544-4.666-7.051-9.02-7.678-.622,0-2.333-.47-2.333-1.254,0-.626.467-1.41,2.644-1.41a18.743,18.743,0,0,1,6.376,1.41L444,268.789a28.278,28.278,0,0,0-8.087-1.41c-5.132,0-9.641,3.134-9.641,8.147,0,3.917,2.8,5.954,7.309,6.894,1.866.157,3.577.939,3.577,1.881,0,1.253-1.244,1.566-2.489,1.566a18.888,18.888,0,0,1-8.552-1.566v6.893Z" transform="translate(-158.196 -99.264)" fill="#0078be" fill-rule="evenodd"/>
  <path id="Path_2743" data-name="Path 2743" d="M365.142,276.129c-2.955,2.194-5.288,2.663-9.175,2.663-5.909,0-11.2-4.857-11.2-9.871,0-5.483,2.954-10.654,11.2-10.654,3.732,0,6.842.626,9.175,2.82v-8.46c-2.955-1.723-7-2.194-10.575-2.194-10.73,0-18.972,7.678-18.972,18.175,0,10.34,9.019,18.175,19.593,18.175a19.6,19.6,0,0,0,9.954-2.507v-8.147Z" transform="translate(-124.59 -92.974)" fill="#0078be" fill-rule="evenodd"/>
  <path id="Path_2744" data-name="Path 2744" d="M398.317,273.494c2.954.157,2.022,2.506-.311,2.506-4.666,0-12.13,1.567-13.063,7.991-2.021,10.967,11.974,10.027,15.706,7.678l.311.626h8.4V275.373c0-7.99-12.752-9.556-21.772-6.579l-1.244,6.737c3.888-1.88,9.331-2.194,11.974-2.037Z" transform="translate(-142.837 -99.269)" fill="#0078be" fill-rule="evenodd"/>
  <path id="Path_2745" data-name="Path 2745" d="M469.7,263.873V251.182h-8.709v35.565H469.7V272.8c0-4.7,7.153-4.858,7.153,0v13.944h8.863V270.61c0-7.207-8.4-12.22-16.017-6.737Z" transform="translate(-171.143 -93.251)" fill="#0078be" fill-rule="evenodd"/>
  <path id="Path_2746" data-name="Path 2746" d="M263.621,279.981a3.811,3.811,0,0,1,4.044-3.134c1.71,0,3.887.784,3.887,3.134Z" transform="translate(-97.869 -102.779)" fill="#fff" fill-rule="evenodd"/>
  <path id="Path_2747" data-name="Path 2747" d="M405.69,289.8v2.976c0,3.447-6.531,4.23-6.531.783,0-3.133,4.821-3.916,6.531-3.759Z" transform="translate(-148.188 -107.58)" fill="#fff" fill-rule="evenodd"/>
</svg>
