<svg id="Group_837" data-name="Group 837" xmlns="http://www.w3.org/2000/svg" width="389.001" height="240.186" viewBox="0 0 389.001 240.186">
  <rect id="Rectangle_187" data-name="Rectangle 187" width="389.001" height="240.186" fill="#fff"/>
  <g id="Group_835" data-name="Group 835" transform="translate(107.656 159.991)">
    <g id="Group_834" data-name="Group 834">
      <g id="Group_833" data-name="Group 833">
        <g id="Group_832" data-name="Group 832">
          <path id="Path_2693" data-name="Path 2693" d="M345.637,254.459H332.1a1.88,1.88,0,0,0-1.857,1.588l-5.473,34.706a1.128,1.128,0,0,0,1.115,1.3h6.945a1.317,1.317,0,0,0,1.3-1.111l1.552-9.839a1.88,1.88,0,0,1,1.857-1.588h4.283c8.915,0,14.061-4.314,15.406-12.866.6-3.74.024-6.679-1.727-8.736C353.577,255.655,350.166,254.459,345.637,254.459Zm1.562,12.676c-.739,4.858-4.45,4.858-8.039,4.858h-2.042l1.432-9.071a1.128,1.128,0,0,1,1.114-.952h.936c2.443,0,4.751,0,5.94,1.391A4.517,4.517,0,0,1,347.2,267.135Z" transform="translate(-228.222 -254.459)" fill="#009ade"/>
          <path id="Path_2694" data-name="Path 2694" d="M192.1,254.459H178.566a1.881,1.881,0,0,0-1.858,1.588l-5.473,34.706a1.128,1.128,0,0,0,1.114,1.3h6.462a1.881,1.881,0,0,0,1.858-1.588l1.477-9.363A1.88,1.88,0,0,1,184,279.518h4.283c8.915,0,14.06-4.314,15.405-12.866.605-3.74.025-6.679-1.727-8.736C200.041,255.655,196.629,254.459,192.1,254.459Zm1.562,12.676c-.739,4.858-4.45,4.858-8.039,4.858h-2.042l1.432-9.071a1.129,1.129,0,0,1,1.115-.952h.936c2.443,0,4.75,0,5.94,1.391A4.517,4.517,0,0,1,193.663,267.135Z" transform="translate(-171.222 -254.459)" fill="#002f87"/>
          <path id="Path_2695" data-name="Path 2695" d="M250.673,274.012h-6.481a1.129,1.129,0,0,0-1.115.953l-.285,1.812-.453-.656c-1.4-2.038-4.531-2.718-7.655-2.718-7.16,0-13.277,5.426-14.467,13.036a12.235,12.235,0,0,0,2.413,9.957c1.977,2.326,4.8,3.3,8.162,3.3a12.411,12.411,0,0,0,8.973-3.708l-.289,1.8a1.128,1.128,0,0,0,1.114,1.3h5.837a1.881,1.881,0,0,0,1.857-1.587l3.5-22.187A1.128,1.128,0,0,0,250.673,274.012Zm-9.033,12.615a7.226,7.226,0,0,1-7.315,6.189,5.021,5.021,0,0,1-5.368-6.3,7.253,7.253,0,0,1,7.263-6.236,5.461,5.461,0,0,1,4.321,1.766A5.58,5.58,0,0,1,241.641,286.627Z" transform="translate(-189.339 -261.492)" fill="#002f87"/>
          <path id="Path_2696" data-name="Path 2696" d="M404.209,274.012h-6.481a1.127,1.127,0,0,0-1.114.953l-.285,1.812-.453-.656c-1.4-2.038-4.531-2.718-7.656-2.718-7.16,0-13.277,5.426-14.467,13.036a12.235,12.235,0,0,0,2.413,9.957c1.978,2.326,4.8,3.3,8.163,3.3a12.409,12.409,0,0,0,8.972-3.708l-.289,1.8a1.128,1.128,0,0,0,1.114,1.3h5.837a1.88,1.88,0,0,0,1.857-1.587l3.5-22.187A1.127,1.127,0,0,0,404.209,274.012Zm-9.032,12.615a7.226,7.226,0,0,1-7.316,6.189,5.021,5.021,0,0,1-5.368-6.3,7.253,7.253,0,0,1,7.263-6.236,5.459,5.459,0,0,1,4.321,1.766A5.582,5.582,0,0,1,395.177,286.627Z" transform="translate(-246.339 -261.492)" fill="#009ade"/>
          <path id="Path_2697" data-name="Path 2697" d="M305.84,274.372h-6.514a1.882,1.882,0,0,0-1.556.824l-8.986,13.235-3.808-12.718a1.881,1.881,0,0,0-1.8-1.341h-6.4a1.129,1.129,0,0,0-1.068,1.493l7.173,21.054-6.746,9.52a1.128,1.128,0,0,0,.92,1.781h6.508a1.881,1.881,0,0,0,1.546-.809l21.664-31.267A1.128,1.128,0,0,0,305.84,274.372Z" transform="translate(-209.988 -261.852)" fill="#002f87"/>
          <path id="Path_2698" data-name="Path 2698" d="M431.168,255.412l-5.556,35.341a1.128,1.128,0,0,0,1.115,1.3h5.587a1.881,1.881,0,0,0,1.857-1.588l5.477-34.705a1.128,1.128,0,0,0-1.114-1.3h-6.252A1.128,1.128,0,0,0,431.168,255.412Z" transform="translate(-265.659 -254.459)" fill="#009ade"/>
        </g>
      </g>
    </g>
  </g>
  <g id="Group_836" data-name="Group 836" transform="translate(151.092 34.129)">
    <path id="Path_2699" data-name="Path 2699" d="M326.072,82.811c1.37-8.736-.009-14.68-4.734-20.064-5.2-5.928-14.6-8.467-26.625-8.467h-34.9a4.993,4.993,0,0,0-4.933,4.216l-14.534,92.162a3,3,0,0,0,2.96,3.463H264.85l-1.488,9.431a2.621,2.621,0,0,0,2.589,3.029h18.162a4.369,4.369,0,0,0,4.315-3.688l.178-.923,3.422-21.7.221-1.2a4.369,4.369,0,0,1,4.315-3.688h2.717c17.595,0,31.373-7.149,35.4-27.822,1.683-8.638.813-15.85-3.635-20.919a17.3,17.3,0,0,0-4.972-3.835h0" transform="translate(-240.306 -54.28)" fill="#009ade"/>
    <path id="Path_2700" data-name="Path 2700" d="M326.072,82.811c1.37-8.736-.009-14.68-4.734-20.064-5.2-5.928-14.6-8.467-26.625-8.467h-34.9a4.993,4.993,0,0,0-4.933,4.216l-14.534,92.162a3,3,0,0,0,2.96,3.463H264.85l5.412-34.322-.168,1.076a4.976,4.976,0,0,1,4.915-4.215h10.241c20.114,0,35.863-8.171,40.464-31.8.136-.7.252-1.378.357-2.044" transform="translate(-240.306 -54.28)" fill="#002169"/>
    <path id="Path_2701" data-name="Path 2701" d="M276.077,82.928a4.367,4.367,0,0,1,4.315-3.688h27.36a57.036,57.036,0,0,1,9.026.657q1.185.19,2.3.439t2.172.556q.526.154,1.035.323a24.718,24.718,0,0,1,3.782,1.6c1.37-8.736-.009-14.68-4.734-20.064-5.2-5.928-14.6-8.467-26.625-8.467h-34.9a4.993,4.993,0,0,0-4.933,4.216l-14.534,92.162a3,3,0,0,0,2.96,3.463H264.85l5.412-34.322Z" transform="translate(-240.306 -54.28)" fill="#002f87"/>
  </g>
</svg>
