<svg id="layer1" xmlns="http://www.w3.org/2000/svg" width="389" height="240.185" viewBox="0 0 389 240.185">
  <path id="path4156" d="M0,0V240.185H389V0Z" fill="navy"/>
  <path id="path4154" d="M4.4,4.4V239.052H387.867V4.4Z" transform="translate(-1.634 -1.634)" fill="#fff"/>
  <rect id="rect4450" width="361.687" height="70.992" transform="translate(13.657 155.536)" fill="#d4aa00"/>
  <rect id="rect4452" width="361.687" height="70.992" transform="translate(13.657 13.656)" fill="navy"/>
  <path id="polygon4383" d="M321.026,178.735l.025.189-8.685.026,7.7-13.061h0Zm-84.718,22.924q-.784-.869,0-3.149h0l17.784-49.919,1.035-1.133-.023-.188-19.416-.05h0c0,.058-.033.093-.1.1a8.354,8.354,0,0,1-.506,4.2h0l-16.131,46.444h0a8.1,8.1,0,0,1-2.275,3.707h0l19.63-.016Zm48.3-4.743q12.114-12.666-1.7-23.523-.624-.488-8.017-5.273c-4.464-2.889-6.405-4.466-6.485-6.9-.1-3.368,4.258-6.087,11.72-4.928a24.607,24.607,0,0,1,12.115,6h0l.445-.043,2.144-11.51h0A31.01,31.01,0,0,0,284.5,145.88c-12.42-2.792-33.493,1.809-32.959,18.485q.273,8.375,9.154,12.49h0l1.51.7h0c4.543,2.1,11.041,5.37,10.854,10.449-.266,7.177-15.717,5.947-24.249-.243h0l-3.62-2.844-.255,11.721h0c-.05,1.742,4.546,4.191,7.089,5.119,11.033,4.017,24.685,3.42,32.584-4.838Zm53.939,4.643-.446-3.479-3.307-50.771-17.037.021-.2,1.386L285.528,201.7l15.226-.045h0a4.014,4.014,0,0,1-.193-3.2h0l6.4-10.374,15.16-.255h0q0,.377.29,9.235a15.53,15.53,0,0,1-.335,4.561h0l16.466-.066ZM216.238,147.481l.335,1.776-22.226,34.064h0a.371.371,0,0,0-.294-.069h0l-.14-35.651H169.767q.423.425,2.321,1.918a15.064,15.064,0,0,1,3.169,3.239q1.85,2.7,1.855,3.78h0l.136,45.352,17.506.126,37.96-54.5-16.476-.031Z" transform="translate(-63.026 -53.875)" fill="navy" fill-rule="evenodd"/>
</svg>
